{
    "asset" : {
        "generator" : "Khronos glTF Blender I/O v3.2.43",
        "version" : "2.0"
    },
    "scene" : 0,
    "scenes" : [
        {
            "name" : "Scene",
            "nodes" : [
                4
            ]
        }
    ],
    "nodes" : [
        {
            "mesh" : 0,
            "name" : "SR_Veh_RalleyCar_Wheel_FL",
            "translation" : [
                1.22088623046875,
                0.6177322268486023,
                1.8349813222885132
            ]
        },
        {
            "mesh" : 1,
            "name" : "SR_Veh_RalleyCar_Wheel_FR",
            "translation" : [
                -1.2210044860839844,
                0.6177322268486023,
                1.8349813222885132
            ]
        },
        {
            "mesh" : 2,
            "name" : "SR_Veh_RalleyCar_Wheel_RL",
            "translation" : [
                1.22088623046875,
                0.6190146207809448,
                -2.312605619430542
            ]
        },
        {
            "mesh" : 3,
            "name" : "SR_Veh_RalleyCar_Wheel_RR",
            "translation" : [
                -1.2210044860839844,
                0.6190146207809448,
                -2.312605619430542
            ]
        },
        {
            "children" : [
                0,
                1,
                2,
                3
            ],
            "mesh" : 4,
            "name" : "RalleyCar",
            "translation" : [
                -50,
                0,
                0
            ]
        }
    ],
    "materials" : [
        {
            "doubleSided" : true,
            "name" : "Wheel",
            "pbrMetallicRoughness" : {
                "baseColorFactor" : [
                    0.003095257328823209,
                    0.003095257328823209,
                    0.003095257328823209,
                    1
                ],
                "metallicFactor" : 0,
                "roughnessFactor" : 0.800000011920929
            }
        },
        {
            "doubleSided" : true,
            "name" : "Paint",
            "pbrMetallicRoughness" : {
                "baseColorFactor" : [
                    0.8000000715255737,
                    0,
                    0,
                    1
                ],
                "metallicFactor" : 0.4000000059604645,
                "roughnessFactor" : 0.699999988079071
            }
        },
        {
            "doubleSided" : true,
            "name" : "Cover",
            "pbrMetallicRoughness" : {
                "baseColorFactor" : [
                    0,
                    0,
                    0,
                    1
                ],
                "metallicFactor" : 0.20000000298023224,
                "roughnessFactor" : 0.800000011920929
            }
        },
        {
            "doubleSided" : true,
            "name" : "Glass",
            "pbrMetallicRoughness" : {
                "baseColorFactor" : [
                    0.6382700204849243,
                    0.6382700204849243,
                    0.6382700204849243,
                    1
                ],
                "roughnessFactor" : 0.20000000298023224
            }
        },
        {
            "doubleSided" : true,
            "name" : "Metal",
            "pbrMetallicRoughness" : {
                "baseColorFactor" : [
                    0.44999998807907104,
                    0.44999998807907104,
                    0.44999998807907104,
                    1
                ],
                "roughnessFactor" : 0.4000000059604645
            }
        },
        {
            "doubleSided" : true,
            "name" : "EngineCover",
            "pbrMetallicRoughness" : {
                "baseColorFactor" : [
                    0.029098937287926674,
                    0.029098937287926674,
                    0.029098937287926674,
                    1
                ],
                "metallicFactor" : 0.20000000298023224
            }
        }
    ],
    "meshes" : [
        {
            "name" : "Mesh.048",
            "primitives" : [
                {
                    "attributes" : {
                        "POSITION" : 0,
                        "NORMAL" : 1,
                        "TEXCOORD_0" : 2,
                        "TEXCOORD_1" : 3
                    },
                    "indices" : 4,
                    "material" : 0
                }
            ]
        },
        {
            "name" : "Mesh.046",
            "primitives" : [
                {
                    "attributes" : {
                        "POSITION" : 5,
                        "NORMAL" : 6,
                        "TEXCOORD_0" : 7,
                        "TEXCOORD_1" : 8
                    },
                    "indices" : 9,
                    "material" : 0
                }
            ]
        },
        {
            "name" : "Mesh.049",
            "primitives" : [
                {
                    "attributes" : {
                        "POSITION" : 10,
                        "NORMAL" : 11,
                        "TEXCOORD_0" : 12,
                        "TEXCOORD_1" : 13
                    },
                    "indices" : 14,
                    "material" : 0
                }
            ]
        },
        {
            "name" : "Mesh.047",
            "primitives" : [
                {
                    "attributes" : {
                        "POSITION" : 15,
                        "NORMAL" : 16,
                        "TEXCOORD_0" : 17,
                        "TEXCOORD_1" : 18
                    },
                    "indices" : 19,
                    "material" : 0
                }
            ]
        },
        {
            "name" : "Mesh.045",
            "primitives" : [
                {
                    "attributes" : {
                        "POSITION" : 20,
                        "NORMAL" : 21,
                        "TEXCOORD_0" : 22,
                        "TEXCOORD_1" : 23
                    },
                    "indices" : 24,
                    "material" : 1
                },
                {
                    "attributes" : {
                        "POSITION" : 25,
                        "NORMAL" : 26,
                        "TEXCOORD_0" : 27,
                        "TEXCOORD_1" : 28
                    },
                    "indices" : 29,
                    "material" : 2
                },
                {
                    "attributes" : {
                        "POSITION" : 30,
                        "NORMAL" : 31,
                        "TEXCOORD_0" : 32,
                        "TEXCOORD_1" : 33
                    },
                    "indices" : 34,
                    "material" : 3
                },
                {
                    "attributes" : {
                        "POSITION" : 35,
                        "NORMAL" : 36,
                        "TEXCOORD_0" : 37,
                        "TEXCOORD_1" : 38
                    },
                    "indices" : 39,
                    "material" : 4
                },
                {
                    "attributes" : {
                        "POSITION" : 40,
                        "NORMAL" : 41,
                        "TEXCOORD_0" : 42,
                        "TEXCOORD_1" : 43
                    },
                    "indices" : 44,
                    "material" : 5
                }
            ]
        }
    ],
    "accessors" : [
        {
            "bufferView" : 0,
            "componentType" : 5126,
            "count" : 85,
            "max" : [
                0.22728538513183594,
                0.6170874238014221,
                0.6170984506607056
            ],
            "min" : [
                -3.814697265625e-06,
                -0.6170892119407654,
                -0.6170933246612549
            ],
            "type" : "VEC3"
        },
        {
            "bufferView" : 1,
            "componentType" : 5126,
            "count" : 85,
            "type" : "VEC3"
        },
        {
            "bufferView" : 2,
            "componentType" : 5126,
            "count" : 85,
            "type" : "VEC2"
        },
        {
            "bufferView" : 3,
            "componentType" : 5126,
            "count" : 85,
            "type" : "VEC2"
        },
        {
            "bufferView" : 4,
            "componentType" : 5123,
            "count" : 138,
            "type" : "SCALAR"
        },
        {
            "bufferView" : 5,
            "componentType" : 5126,
            "count" : 85,
            "max" : [
                1.9073486328125e-06,
                0.6170874238014221,
                0.6170984506607056
            ],
            "min" : [
                -0.22728729248046875,
                -0.6170892119407654,
                -0.6170933246612549
            ],
            "type" : "VEC3"
        },
        {
            "bufferView" : 6,
            "componentType" : 5126,
            "count" : 85,
            "type" : "VEC3"
        },
        {
            "bufferView" : 7,
            "componentType" : 5126,
            "count" : 85,
            "type" : "VEC2"
        },
        {
            "bufferView" : 8,
            "componentType" : 5126,
            "count" : 85,
            "type" : "VEC2"
        },
        {
            "bufferView" : 9,
            "componentType" : 5123,
            "count" : 138,
            "type" : "SCALAR"
        },
        {
            "bufferView" : 10,
            "componentType" : 5126,
            "count" : 85,
            "max" : [
                0.22728538513183594,
                0.6190134286880493,
                0.6190249919891357
            ],
            "min" : [
                -3.814697265625e-06,
                -0.6190142631530762,
                -0.6190121173858643
            ],
            "type" : "VEC3"
        },
        {
            "bufferView" : 11,
            "componentType" : 5126,
            "count" : 85,
            "type" : "VEC3"
        },
        {
            "bufferView" : 12,
            "componentType" : 5126,
            "count" : 85,
            "type" : "VEC2"
        },
        {
            "bufferView" : 13,
            "componentType" : 5126,
            "count" : 85,
            "type" : "VEC2"
        },
        {
            "bufferView" : 14,
            "componentType" : 5123,
            "count" : 138,
            "type" : "SCALAR"
        },
        {
            "bufferView" : 15,
            "componentType" : 5126,
            "count" : 85,
            "max" : [
                1.9073486328125e-06,
                0.6190134286880493,
                0.6190249919891357
            ],
            "min" : [
                -0.22728729248046875,
                -0.6190142631530762,
                -0.6190121173858643
            ],
            "type" : "VEC3"
        },
        {
            "bufferView" : 16,
            "componentType" : 5126,
            "count" : 85,
            "type" : "VEC3"
        },
        {
            "bufferView" : 17,
            "componentType" : 5126,
            "count" : 85,
            "type" : "VEC2"
        },
        {
            "bufferView" : 18,
            "componentType" : 5126,
            "count" : 85,
            "type" : "VEC2"
        },
        {
            "bufferView" : 19,
            "componentType" : 5123,
            "count" : 138,
            "type" : "SCALAR"
        },
        {
            "bufferView" : 20,
            "componentType" : 5126,
            "count" : 492,
            "max" : [
                1.6441688537597656,
                2.2337443828582764,
                3.2954161167144775
            ],
            "min" : [
                -1.6441612243652344,
                0.36620625853538513,
                -3.394134283065796
            ],
            "type" : "VEC3"
        },
        {
            "bufferView" : 21,
            "componentType" : 5126,
            "count" : 492,
            "type" : "VEC3"
        },
        {
            "bufferView" : 22,
            "componentType" : 5126,
            "count" : 492,
            "type" : "VEC2"
        },
        {
            "bufferView" : 23,
            "componentType" : 5126,
            "count" : 492,
            "type" : "VEC2"
        },
        {
            "bufferView" : 24,
            "componentType" : 5123,
            "count" : 942,
            "type" : "SCALAR"
        },
        {
            "bufferView" : 25,
            "componentType" : 5126,
            "count" : 380,
            "max" : [
                1.6441688537597656,
                2.6311190128326416,
                3.3941423892974854
            ],
            "min" : [
                -1.6441612243652344,
                0.36620625853538513,
                -3.394134283065796
            ],
            "type" : "VEC3"
        },
        {
            "bufferView" : 26,
            "componentType" : 5126,
            "count" : 380,
            "type" : "VEC3"
        },
        {
            "bufferView" : 27,
            "componentType" : 5126,
            "count" : 380,
            "type" : "VEC2"
        },
        {
            "bufferView" : 28,
            "componentType" : 5126,
            "count" : 380,
            "type" : "VEC2"
        },
        {
            "bufferView" : 29,
            "componentType" : 5123,
            "count" : 771,
            "type" : "SCALAR"
        },
        {
            "bufferView" : 30,
            "componentType" : 5126,
            "count" : 58,
            "max" : [
                1.6243515014648438,
                2.5196566581726074,
                3.3941423892974854
            ],
            "min" : [
                -1.62451171875,
                0.9096466898918152,
                -3.393653631210327
            ],
            "type" : "VEC3"
        },
        {
            "bufferView" : 31,
            "componentType" : 5126,
            "count" : 58,
            "type" : "VEC3"
        },
        {
            "bufferView" : 32,
            "componentType" : 5126,
            "count" : 58,
            "type" : "VEC2"
        },
        {
            "bufferView" : 33,
            "componentType" : 5126,
            "count" : 58,
            "type" : "VEC2"
        },
        {
            "bufferView" : 34,
            "componentType" : 5123,
            "count" : 90,
            "type" : "SCALAR"
        },
        {
            "bufferView" : 35,
            "componentType" : 5126,
            "count" : 100,
            "max" : [
                1.2574272155761719,
                2.7928037643432617,
                3.2954161167144775
            ],
            "min" : [
                -1.2575340270996094,
                0.8611704111099243,
                -3.2509913444519043
            ],
            "type" : "VEC3"
        },
        {
            "bufferView" : 36,
            "componentType" : 5126,
            "count" : 100,
            "type" : "VEC3"
        },
        {
            "bufferView" : 37,
            "componentType" : 5126,
            "count" : 100,
            "type" : "VEC2"
        },
        {
            "bufferView" : 38,
            "componentType" : 5126,
            "count" : 100,
            "type" : "VEC2"
        },
        {
            "bufferView" : 39,
            "componentType" : 5123,
            "count" : 192,
            "type" : "SCALAR"
        },
        {
            "bufferView" : 40,
            "componentType" : 5126,
            "count" : 23,
            "max" : [
                1.350442886352539,
                2.7209792137145996,
                3.2954158782958984
            ],
            "min" : [
                -1.3505592346191406,
                0.36620625853538513,
                -3.0950889587402344
            ],
            "type" : "VEC3"
        },
        {
            "bufferView" : 41,
            "componentType" : 5126,
            "count" : 23,
            "type" : "VEC3"
        },
        {
            "bufferView" : 42,
            "componentType" : 5126,
            "count" : 23,
            "type" : "VEC2"
        },
        {
            "bufferView" : 43,
            "componentType" : 5126,
            "count" : 23,
            "type" : "VEC2"
        },
        {
            "bufferView" : 44,
            "componentType" : 5123,
            "count" : 57,
            "type" : "SCALAR"
        }
    ],
    "bufferViews" : [
        {
            "buffer" : 0,
            "byteLength" : 1020,
            "byteOffset" : 0
        },
        {
            "buffer" : 0,
            "byteLength" : 1020,
            "byteOffset" : 1020
        },
        {
            "buffer" : 0,
            "byteLength" : 680,
            "byteOffset" : 2040
        },
        {
            "buffer" : 0,
            "byteLength" : 680,
            "byteOffset" : 2720
        },
        {
            "buffer" : 0,
            "byteLength" : 276,
            "byteOffset" : 3400
        },
        {
            "buffer" : 0,
            "byteLength" : 1020,
            "byteOffset" : 3676
        },
        {
            "buffer" : 0,
            "byteLength" : 1020,
            "byteOffset" : 4696
        },
        {
            "buffer" : 0,
            "byteLength" : 680,
            "byteOffset" : 5716
        },
        {
            "buffer" : 0,
            "byteLength" : 680,
            "byteOffset" : 6396
        },
        {
            "buffer" : 0,
            "byteLength" : 276,
            "byteOffset" : 7076
        },
        {
            "buffer" : 0,
            "byteLength" : 1020,
            "byteOffset" : 7352
        },
        {
            "buffer" : 0,
            "byteLength" : 1020,
            "byteOffset" : 8372
        },
        {
            "buffer" : 0,
            "byteLength" : 680,
            "byteOffset" : 9392
        },
        {
            "buffer" : 0,
            "byteLength" : 680,
            "byteOffset" : 10072
        },
        {
            "buffer" : 0,
            "byteLength" : 276,
            "byteOffset" : 10752
        },
        {
            "buffer" : 0,
            "byteLength" : 1020,
            "byteOffset" : 11028
        },
        {
            "buffer" : 0,
            "byteLength" : 1020,
            "byteOffset" : 12048
        },
        {
            "buffer" : 0,
            "byteLength" : 680,
            "byteOffset" : 13068
        },
        {
            "buffer" : 0,
            "byteLength" : 680,
            "byteOffset" : 13748
        },
        {
            "buffer" : 0,
            "byteLength" : 276,
            "byteOffset" : 14428
        },
        {
            "buffer" : 0,
            "byteLength" : 5904,
            "byteOffset" : 14704
        },
        {
            "buffer" : 0,
            "byteLength" : 5904,
            "byteOffset" : 20608
        },
        {
            "buffer" : 0,
            "byteLength" : 3936,
            "byteOffset" : 26512
        },
        {
            "buffer" : 0,
            "byteLength" : 3936,
            "byteOffset" : 30448
        },
        {
            "buffer" : 0,
            "byteLength" : 1884,
            "byteOffset" : 34384
        },
        {
            "buffer" : 0,
            "byteLength" : 4560,
            "byteOffset" : 36268
        },
        {
            "buffer" : 0,
            "byteLength" : 4560,
            "byteOffset" : 40828
        },
        {
            "buffer" : 0,
            "byteLength" : 3040,
            "byteOffset" : 45388
        },
        {
            "buffer" : 0,
            "byteLength" : 3040,
            "byteOffset" : 48428
        },
        {
            "buffer" : 0,
            "byteLength" : 1542,
            "byteOffset" : 51468
        },
        {
            "buffer" : 0,
            "byteLength" : 696,
            "byteOffset" : 53012
        },
        {
            "buffer" : 0,
            "byteLength" : 696,
            "byteOffset" : 53708
        },
        {
            "buffer" : 0,
            "byteLength" : 464,
            "byteOffset" : 54404
        },
        {
            "buffer" : 0,
            "byteLength" : 464,
            "byteOffset" : 54868
        },
        {
            "buffer" : 0,
            "byteLength" : 180,
            "byteOffset" : 55332
        },
        {
            "buffer" : 0,
            "byteLength" : 1200,
            "byteOffset" : 55512
        },
        {
            "buffer" : 0,
            "byteLength" : 1200,
            "byteOffset" : 56712
        },
        {
            "buffer" : 0,
            "byteLength" : 800,
            "byteOffset" : 57912
        },
        {
            "buffer" : 0,
            "byteLength" : 800,
            "byteOffset" : 58712
        },
        {
            "buffer" : 0,
            "byteLength" : 384,
            "byteOffset" : 59512
        },
        {
            "buffer" : 0,
            "byteLength" : 276,
            "byteOffset" : 59896
        },
        {
            "buffer" : 0,
            "byteLength" : 276,
            "byteOffset" : 60172
        },
        {
            "buffer" : 0,
            "byteLength" : 184,
            "byteOffset" : 60448
        },
        {
            "buffer" : 0,
            "byteLength" : 184,
            "byteOffset" : 60632
        },
        {
            "buffer" : 0,
            "byteLength" : 114,
            "byteOffset" : 60816
        }
    ],
    "buffers" : [
        {
            "byteLength" : 60932,
            "uri" : "ralley_car.bin"
        }
    ]
}
