{
    "asset" : {
        "generator" : "Khronos glTF Blender I/O v3.2.43",
        "version" : "2.0"
    },
    "scene" : 0,
    "scenes" : [
        {
            "name" : "Scene",
            "nodes" : [
                4
            ]
        }
    ],
    "nodes" : [
        {
            "mesh" : 0,
            "name" : "Wheel_FL.003",
            "translation" : [
                10,
                0,
                0
            ]
        },
        {
            "mesh" : 1,
            "name" : "Wheel_FR.003",
            "translation" : [
                10,
                0,
                0
            ]
        },
        {
            "mesh" : 2,
            "name" : "Wheel_RL.003",
            "translation" : [
                10,
                0,
                0
            ]
        },
        {
            "mesh" : 3,
            "name" : "Wheel_RR.003",
            "translation" : [
                10,
                0,
                0
            ]
        },
        {
            "children" : [
                0,
                1,
                2,
                3
            ],
            "mesh" : 4,
            "name" : "MuscleCar",
            "translation" : [
                -30,
                0,
                0
            ]
        }
    ],
    "materials" : [
        {
            "doubleSided" : true,
            "name" : "Wheel",
            "pbrMetallicRoughness" : {
                "baseColorFactor" : [
                    0.003095257328823209,
                    0.003095257328823209,
                    0.003095257328823209,
                    1
                ],
                "metallicFactor" : 0,
                "roughnessFactor" : 0.800000011920929
            }
        },
        {
            "doubleSided" : true,
            "name" : "Paint",
            "pbrMetallicRoughness" : {
                "baseColorFactor" : [
                    0.8000000715255737,
                    0,
                    0,
                    1
                ],
                "metallicFactor" : 0.4000000059604645,
                "roughnessFactor" : 0.699999988079071
            }
        },
        {
            "doubleSided" : true,
            "name" : "Cover",
            "pbrMetallicRoughness" : {
                "baseColorFactor" : [
                    0,
                    0,
                    0,
                    1
                ],
                "metallicFactor" : 0.20000000298023224,
                "roughnessFactor" : 0.800000011920929
            }
        },
        {
            "doubleSided" : true,
            "name" : "Metal",
            "pbrMetallicRoughness" : {
                "baseColorFactor" : [
                    0.44999998807907104,
                    0.44999998807907104,
                    0.44999998807907104,
                    1
                ],
                "roughnessFactor" : 0.4000000059604645
            }
        },
        {
            "doubleSided" : true,
            "name" : "Glass",
            "pbrMetallicRoughness" : {
                "baseColorFactor" : [
                    0.6382700204849243,
                    0.6382700204849243,
                    0.6382700204849243,
                    1
                ],
                "roughnessFactor" : 0.20000000298023224
            }
        },
        {
            "doubleSided" : true,
            "name" : "EngineCover",
            "pbrMetallicRoughness" : {
                "baseColorFactor" : [
                    0.029098937287926674,
                    0.029098937287926674,
                    0.029098937287926674,
                    1
                ],
                "metallicFactor" : 0.20000000298023224
            }
        }
    ],
    "meshes" : [
        {
            "name" : "Mesh.032",
            "primitives" : [
                {
                    "attributes" : {
                        "POSITION" : 0,
                        "NORMAL" : 1,
                        "TEXCOORD_0" : 2,
                        "TEXCOORD_1" : 3
                    },
                    "indices" : 4,
                    "material" : 0
                }
            ]
        },
        {
            "name" : "Mesh.031",
            "primitives" : [
                {
                    "attributes" : {
                        "POSITION" : 5,
                        "NORMAL" : 6,
                        "TEXCOORD_0" : 7,
                        "TEXCOORD_1" : 8
                    },
                    "indices" : 9,
                    "material" : 0
                }
            ]
        },
        {
            "name" : "Mesh.033",
            "primitives" : [
                {
                    "attributes" : {
                        "POSITION" : 10,
                        "NORMAL" : 11,
                        "TEXCOORD_0" : 12,
                        "TEXCOORD_1" : 13
                    },
                    "indices" : 4,
                    "material" : 0
                }
            ]
        },
        {
            "name" : "Mesh.034",
            "primitives" : [
                {
                    "attributes" : {
                        "POSITION" : 14,
                        "NORMAL" : 15,
                        "TEXCOORD_0" : 16,
                        "TEXCOORD_1" : 17
                    },
                    "indices" : 9,
                    "material" : 0
                }
            ]
        },
        {
            "name" : "Mesh.030",
            "primitives" : [
                {
                    "attributes" : {
                        "POSITION" : 18,
                        "NORMAL" : 19,
                        "TEXCOORD_0" : 20,
                        "TEXCOORD_1" : 21
                    },
                    "indices" : 22,
                    "material" : 1
                },
                {
                    "attributes" : {
                        "POSITION" : 23,
                        "NORMAL" : 24,
                        "TEXCOORD_0" : 25,
                        "TEXCOORD_1" : 26
                    },
                    "indices" : 27,
                    "material" : 2
                },
                {
                    "attributes" : {
                        "POSITION" : 28,
                        "NORMAL" : 29,
                        "TEXCOORD_0" : 30,
                        "TEXCOORD_1" : 31
                    },
                    "indices" : 32,
                    "material" : 3
                },
                {
                    "attributes" : {
                        "POSITION" : 33,
                        "NORMAL" : 34,
                        "TEXCOORD_0" : 35,
                        "TEXCOORD_1" : 36
                    },
                    "indices" : 37,
                    "material" : 4
                },
                {
                    "attributes" : {
                        "POSITION" : 38,
                        "NORMAL" : 39,
                        "TEXCOORD_0" : 40,
                        "TEXCOORD_1" : 41
                    },
                    "indices" : 42,
                    "material" : 5
                }
            ]
        }
    ],
    "accessors" : [
        {
            "bufferView" : 0,
            "componentType" : 5126,
            "count" : 85,
            "max" : [
                -8.399742126464844,
                1.2324695587158203,
                3.136380195617676
            ],
            "min" : [
                -8.865631103515625,
                0.000956416130065918,
                1.9048471450805664
            ],
            "type" : "VEC3"
        },
        {
            "bufferView" : 1,
            "componentType" : 5126,
            "count" : 85,
            "type" : "VEC3"
        },
        {
            "bufferView" : 2,
            "componentType" : 5126,
            "count" : 85,
            "type" : "VEC2"
        },
        {
            "bufferView" : 3,
            "componentType" : 5126,
            "count" : 85,
            "type" : "VEC2"
        },
        {
            "bufferView" : 4,
            "componentType" : 5123,
            "count" : 138,
            "type" : "SCALAR"
        },
        {
            "bufferView" : 5,
            "componentType" : 5126,
            "count" : 85,
            "max" : [
                -11.13437271118164,
                1.2324695587158203,
                3.136380195617676
            ],
            "min" : [
                -11.600261688232422,
                0.000956416130065918,
                1.9048471450805664
            ],
            "type" : "VEC3"
        },
        {
            "bufferView" : 6,
            "componentType" : 5126,
            "count" : 85,
            "type" : "VEC3"
        },
        {
            "bufferView" : 7,
            "componentType" : 5126,
            "count" : 85,
            "type" : "VEC2"
        },
        {
            "bufferView" : 8,
            "componentType" : 5126,
            "count" : 85,
            "type" : "VEC2"
        },
        {
            "bufferView" : 9,
            "componentType" : 5123,
            "count" : 138,
            "type" : "SCALAR"
        },
        {
            "bufferView" : 10,
            "componentType" : 5126,
            "count" : 85,
            "max" : [
                -8.399742126464844,
                1.2331700325012207,
                -1.5647697448730469
            ],
            "min" : [
                -8.865631103515625,
                3.5762786865234375e-07,
                -2.797952175140381
            ],
            "type" : "VEC3"
        },
        {
            "bufferView" : 11,
            "componentType" : 5126,
            "count" : 85,
            "type" : "VEC3"
        },
        {
            "bufferView" : 12,
            "componentType" : 5126,
            "count" : 85,
            "type" : "VEC2"
        },
        {
            "bufferView" : 13,
            "componentType" : 5126,
            "count" : 85,
            "type" : "VEC2"
        },
        {
            "bufferView" : 14,
            "componentType" : 5126,
            "count" : 85,
            "max" : [
                -11.134368896484375,
                1.2331700325012207,
                -1.5647697448730469
            ],
            "min" : [
                -11.600261688232422,
                3.5762786865234375e-07,
                -2.797952175140381
            ],
            "type" : "VEC3"
        },
        {
            "bufferView" : 15,
            "componentType" : 5126,
            "count" : 85,
            "type" : "VEC3"
        },
        {
            "bufferView" : 16,
            "componentType" : 5126,
            "count" : 85,
            "type" : "VEC2"
        },
        {
            "bufferView" : 17,
            "componentType" : 5126,
            "count" : 85,
            "type" : "VEC2"
        },
        {
            "bufferView" : 18,
            "componentType" : 5126,
            "count" : 856,
            "max" : [
                1.7866601943969727,
                2.561535120010376,
                3.8986599445343018
            ],
            "min" : [
                -1.7866601943969727,
                0.2864343225955963,
                -3.8986756801605225
            ],
            "type" : "VEC3"
        },
        {
            "bufferView" : 19,
            "componentType" : 5126,
            "count" : 856,
            "type" : "VEC3"
        },
        {
            "bufferView" : 20,
            "componentType" : 5126,
            "count" : 856,
            "type" : "VEC2"
        },
        {
            "bufferView" : 21,
            "componentType" : 5126,
            "count" : 856,
            "type" : "VEC2"
        },
        {
            "bufferView" : 22,
            "componentType" : 5123,
            "count" : 1662,
            "type" : "SCALAR"
        },
        {
            "bufferView" : 23,
            "componentType" : 5126,
            "count" : 617,
            "max" : [
                1.7866601943969727,
                2.561535120010376,
                3.8986599445343018
            ],
            "min" : [
                -1.7866601943969727,
                0.2864343225955963,
                -3.8986759185791016
            ],
            "type" : "VEC3"
        },
        {
            "bufferView" : 24,
            "componentType" : 5126,
            "count" : 617,
            "type" : "VEC3"
        },
        {
            "bufferView" : 25,
            "componentType" : 5126,
            "count" : 617,
            "type" : "VEC2"
        },
        {
            "bufferView" : 26,
            "componentType" : 5126,
            "count" : 617,
            "type" : "VEC2"
        },
        {
            "bufferView" : 27,
            "componentType" : 5123,
            "count" : 1083,
            "type" : "SCALAR"
        },
        {
            "bufferView" : 28,
            "componentType" : 5126,
            "count" : 254,
            "max" : [
                1.480438232421875,
                2.2911696434020996,
                3.8986599445343018
            ],
            "min" : [
                -1.480438232421875,
                0.4633350670337677,
                -3.8986756801605225
            ],
            "type" : "VEC3"
        },
        {
            "bufferView" : 29,
            "componentType" : 5126,
            "count" : 254,
            "type" : "VEC3"
        },
        {
            "bufferView" : 30,
            "componentType" : 5126,
            "count" : 254,
            "type" : "VEC2"
        },
        {
            "bufferView" : 31,
            "componentType" : 5126,
            "count" : 254,
            "type" : "VEC2"
        },
        {
            "bufferView" : 32,
            "componentType" : 5123,
            "count" : 480,
            "type" : "SCALAR"
        },
        {
            "bufferView" : 33,
            "componentType" : 5126,
            "count" : 68,
            "max" : [
                1.7593202590942383,
                2.503553628921509,
                3.821337938308716
            ],
            "min" : [
                -1.7568178176879883,
                1.0856201648712158,
                -3.8986756801605225
            ],
            "type" : "VEC3"
        },
        {
            "bufferView" : 34,
            "componentType" : 5126,
            "count" : 68,
            "type" : "VEC3"
        },
        {
            "bufferView" : 35,
            "componentType" : 5126,
            "count" : 68,
            "type" : "VEC2"
        },
        {
            "bufferView" : 36,
            "componentType" : 5126,
            "count" : 68,
            "type" : "VEC2"
        },
        {
            "bufferView" : 37,
            "componentType" : 5123,
            "count" : 132,
            "type" : "SCALAR"
        },
        {
            "bufferView" : 38,
            "componentType" : 5126,
            "count" : 31,
            "max" : [
                1.4092903137207031,
                2.1575276851654053,
                3.8986597061157227
            ],
            "min" : [
                -1.4092864990234375,
                0.2864343225955963,
                -2.960958957672119
            ],
            "type" : "VEC3"
        },
        {
            "bufferView" : 39,
            "componentType" : 5126,
            "count" : 31,
            "type" : "VEC3"
        },
        {
            "bufferView" : 40,
            "componentType" : 5126,
            "count" : 31,
            "type" : "VEC2"
        },
        {
            "bufferView" : 41,
            "componentType" : 5126,
            "count" : 31,
            "type" : "VEC2"
        },
        {
            "bufferView" : 42,
            "componentType" : 5123,
            "count" : 75,
            "type" : "SCALAR"
        }
    ],
    "bufferViews" : [
        {
            "buffer" : 0,
            "byteLength" : 1020,
            "byteOffset" : 0
        },
        {
            "buffer" : 0,
            "byteLength" : 1020,
            "byteOffset" : 1020
        },
        {
            "buffer" : 0,
            "byteLength" : 680,
            "byteOffset" : 2040
        },
        {
            "buffer" : 0,
            "byteLength" : 680,
            "byteOffset" : 2720
        },
        {
            "buffer" : 0,
            "byteLength" : 276,
            "byteOffset" : 3400
        },
        {
            "buffer" : 0,
            "byteLength" : 1020,
            "byteOffset" : 3676
        },
        {
            "buffer" : 0,
            "byteLength" : 1020,
            "byteOffset" : 4696
        },
        {
            "buffer" : 0,
            "byteLength" : 680,
            "byteOffset" : 5716
        },
        {
            "buffer" : 0,
            "byteLength" : 680,
            "byteOffset" : 6396
        },
        {
            "buffer" : 0,
            "byteLength" : 276,
            "byteOffset" : 7076
        },
        {
            "buffer" : 0,
            "byteLength" : 1020,
            "byteOffset" : 7352
        },
        {
            "buffer" : 0,
            "byteLength" : 1020,
            "byteOffset" : 8372
        },
        {
            "buffer" : 0,
            "byteLength" : 680,
            "byteOffset" : 9392
        },
        {
            "buffer" : 0,
            "byteLength" : 680,
            "byteOffset" : 10072
        },
        {
            "buffer" : 0,
            "byteLength" : 1020,
            "byteOffset" : 10752
        },
        {
            "buffer" : 0,
            "byteLength" : 1020,
            "byteOffset" : 11772
        },
        {
            "buffer" : 0,
            "byteLength" : 680,
            "byteOffset" : 12792
        },
        {
            "buffer" : 0,
            "byteLength" : 680,
            "byteOffset" : 13472
        },
        {
            "buffer" : 0,
            "byteLength" : 10272,
            "byteOffset" : 14152
        },
        {
            "buffer" : 0,
            "byteLength" : 10272,
            "byteOffset" : 24424
        },
        {
            "buffer" : 0,
            "byteLength" : 6848,
            "byteOffset" : 34696
        },
        {
            "buffer" : 0,
            "byteLength" : 6848,
            "byteOffset" : 41544
        },
        {
            "buffer" : 0,
            "byteLength" : 3324,
            "byteOffset" : 48392
        },
        {
            "buffer" : 0,
            "byteLength" : 7404,
            "byteOffset" : 51716
        },
        {
            "buffer" : 0,
            "byteLength" : 7404,
            "byteOffset" : 59120
        },
        {
            "buffer" : 0,
            "byteLength" : 4936,
            "byteOffset" : 66524
        },
        {
            "buffer" : 0,
            "byteLength" : 4936,
            "byteOffset" : 71460
        },
        {
            "buffer" : 0,
            "byteLength" : 2166,
            "byteOffset" : 76396
        },
        {
            "buffer" : 0,
            "byteLength" : 3048,
            "byteOffset" : 78564
        },
        {
            "buffer" : 0,
            "byteLength" : 3048,
            "byteOffset" : 81612
        },
        {
            "buffer" : 0,
            "byteLength" : 2032,
            "byteOffset" : 84660
        },
        {
            "buffer" : 0,
            "byteLength" : 2032,
            "byteOffset" : 86692
        },
        {
            "buffer" : 0,
            "byteLength" : 960,
            "byteOffset" : 88724
        },
        {
            "buffer" : 0,
            "byteLength" : 816,
            "byteOffset" : 89684
        },
        {
            "buffer" : 0,
            "byteLength" : 816,
            "byteOffset" : 90500
        },
        {
            "buffer" : 0,
            "byteLength" : 544,
            "byteOffset" : 91316
        },
        {
            "buffer" : 0,
            "byteLength" : 544,
            "byteOffset" : 91860
        },
        {
            "buffer" : 0,
            "byteLength" : 264,
            "byteOffset" : 92404
        },
        {
            "buffer" : 0,
            "byteLength" : 372,
            "byteOffset" : 92668
        },
        {
            "buffer" : 0,
            "byteLength" : 372,
            "byteOffset" : 93040
        },
        {
            "buffer" : 0,
            "byteLength" : 248,
            "byteOffset" : 93412
        },
        {
            "buffer" : 0,
            "byteLength" : 248,
            "byteOffset" : 93660
        },
        {
            "buffer" : 0,
            "byteLength" : 150,
            "byteOffset" : 93908
        }
    ],
    "buffers" : [
        {
            "byteLength" : 94060,
            "uri" : "muscle_car.bin"
        }
    ]
}
