{
    "asset" : {
        "generator" : "Khronos glTF Blender I/O v3.2.43",
        "version" : "2.0"
    },
    "scene" : 0,
    "scenes" : [
        {
            "name" : "Scene",
            "nodes" : [
                4
            ]
        }
    ],
    "nodes" : [
        {
            "mesh" : 0,
            "name" : "SR_Veh_MonsterTruck_Wheel_FL"
        },
        {
            "mesh" : 1,
            "name" : "SR_Veh_MonsterTruck_Wheel_FR"
        },
        {
            "mesh" : 2,
            "name" : "SR_Veh_MonsterTruck_Wheel_RL"
        },
        {
            "mesh" : 3,
            "name" : "SR_Veh_MonsterTruck_Wheel_RR"
        },
        {
            "children" : [
                0,
                1,
                2,
                3
            ],
            "mesh" : 4,
            "name" : "SR_Veh_MonsterTruck_Red"
        }
    ],
    "materials" : [
        {
            "doubleSided" : true,
            "name" : "lambert1",
            "pbrMetallicRoughness" : {
                "metallicFactor" : 0,
                "roughnessFactor" : 0.5527864098548889
            }
        }
    ],
    "meshes" : [
        {
            "name" : "Mesh.002",
            "primitives" : [
                {
                    "attributes" : {
                        "POSITION" : 0
                    },
                    "indices" : 1,
                    "material" : 0
                }
            ]
        },
        {
            "name" : "Mesh.003",
            "primitives" : [
                {
                    "attributes" : {
                        "POSITION" : 2
                    },
                    "indices" : 3,
                    "material" : 0
                }
            ]
        },
        {
            "name" : "Mesh.001",
            "primitives" : [
                {
                    "attributes" : {
                        "POSITION" : 4
                    },
                    "indices" : 1,
                    "material" : 0
                }
            ]
        },
        {
            "name" : "Mesh.004",
            "primitives" : [
                {
                    "attributes" : {
                        "POSITION" : 5
                    },
                    "indices" : 3,
                    "material" : 0
                }
            ]
        },
        {
            "name" : "Mesh",
            "primitives" : [
                {
                    "attributes" : {
                        "POSITION" : 6
                    },
                    "indices" : 7,
                    "material" : 0
                }
            ]
        }
    ],
    "accessors" : [
        {
            "bufferView" : 0,
            "componentType" : 5126,
            "count" : 85,
            "max" : [
                2.994601249694824,
                2.8372321128845215,
                4.599999904632568
            ],
            "min" : [
                1.600000023841858,
                -5.960464477539062e-07,
                1.7000000476837158
            ],
            "type" : "VEC3"
        },
        {
            "bufferView" : 1,
            "componentType" : 5123,
            "count" : 498,
            "type" : "SCALAR"
        },
        {
            "bufferView" : 2,
            "componentType" : 5126,
            "count" : 85,
            "max" : [
                -1.5675888061523438,
                2.8372321128845215,
                4.5862507820129395
            ],
            "min" : [
                -3.0003585815429688,
                -5.960464477539062e-07,
                1.7490085363388062
            ],
            "type" : "VEC3"
        },
        {
            "bufferView" : 3,
            "componentType" : 5123,
            "count" : 498,
            "type" : "SCALAR"
        },
        {
            "bufferView" : 4,
            "componentType" : 5126,
            "count" : 85,
            "max" : [
                3.000364303588867,
                2.837233304977417,
                -1.6761165857315063
            ],
            "min" : [
                1.5675945281982422,
                4.76837158203125e-07,
                -4.513350963592529
            ],
            "type" : "VEC3"
        },
        {
            "bufferView" : 5,
            "componentType" : 5126,
            "count" : 85,
            "max" : [
                -1.5618247985839844,
                2.837233304977417,
                -1.6761165857315063
            ],
            "min" : [
                -2.994595527648926,
                4.76837158203125e-07,
                -4.513350963592529
            ],
            "type" : "VEC3"
        },
        {
            "bufferView" : 6,
            "componentType" : 5126,
            "count" : 786,
            "max" : [
                2.301560401916504,
                5.816694736480713,
                4.482372760772705
            ],
            "min" : [
                -2.3003530502319336,
                1.0470507144927979,
                -4.586257457733154
            ],
            "type" : "VEC3"
        },
        {
            "bufferView" : 7,
            "componentType" : 5123,
            "count" : 4464,
            "type" : "SCALAR"
        }
    ],
    "bufferViews" : [
        {
            "buffer" : 0,
            "byteLength" : 1020,
            "byteOffset" : 0
        },
        {
            "buffer" : 0,
            "byteLength" : 996,
            "byteOffset" : 1020
        },
        {
            "buffer" : 0,
            "byteLength" : 1020,
            "byteOffset" : 2016
        },
        {
            "buffer" : 0,
            "byteLength" : 996,
            "byteOffset" : 3036
        },
        {
            "buffer" : 0,
            "byteLength" : 1020,
            "byteOffset" : 4032
        },
        {
            "buffer" : 0,
            "byteLength" : 1020,
            "byteOffset" : 5052
        },
        {
            "buffer" : 0,
            "byteLength" : 9432,
            "byteOffset" : 6072
        },
        {
            "buffer" : 0,
            "byteLength" : 8928,
            "byteOffset" : 15504
        }
    ],
    "buffers" : [
        {
            "byteLength" : 24432,
            "uri" : "data:application/octet-stream;base64,"
        }
    ]
}
