{
    "asset" : {
        "generator" : "Khronos glTF Blender I/O v3.2.43",
        "version" : "2.0"
    },
    "scene" : 0,
    "scenes" : [
        {
            "name" : "Scene",
            "nodes" : [
                4
            ]
        }
    ],
    "nodes" : [
        {
            "mesh" : 0,
            "name" : "Wheel_FL",
            "translation" : [
                1.1329612731933594,
                0.5552175045013428,
                1.933481216430664
            ]
        },
        {
            "mesh" : 1,
            "name" : "Wheel_FR.002",
            "translation" : [
                -1.132965087890625,
                0.5552175045013428,
                1.933481216430664
            ]
        },
        {
            "mesh" : 2,
            "name" : "Wheel_RL.002",
            "translation" : [
                1.1329612731933594,
                0.5552181601524353,
                -2.315145969390869
            ]
        },
        {
            "mesh" : 3,
            "name" : "Wheel_RR.002",
            "translation" : [
                -1.132965087890625,
                0.5552181601524353,
                -2.315145969390869
            ]
        },
        {
            "children" : [
                0,
                1,
                2,
                3
            ],
            "mesh" : 4,
            "name" : "DerbyCar",
            "translation" : [
                -40,
                0,
                0
            ]
        }
    ],
    "materials" : [
        {
            "doubleSided" : true,
            "name" : "Wheel",
            "pbrMetallicRoughness" : {
                "baseColorFactor" : [
                    0.003095257328823209,
                    0.003095257328823209,
                    0.003095257328823209,
                    1
                ],
                "metallicFactor" : 0,
                "roughnessFactor" : 0.800000011920929
            }
        },
        {
            "doubleSided" : true,
            "name" : "Paint",
            "pbrMetallicRoughness" : {
                "baseColorFactor" : [
                    0.8000000715255737,
                    0,
                    0,
                    1
                ],
                "metallicFactor" : 0.4000000059604645,
                "roughnessFactor" : 0.699999988079071
            }
        },
        {
            "doubleSided" : true,
            "name" : "Glass",
            "pbrMetallicRoughness" : {
                "baseColorFactor" : [
                    0.6382700204849243,
                    0.6382700204849243,
                    0.6382700204849243,
                    1
                ],
                "roughnessFactor" : 0.20000000298023224
            }
        },
        {
            "doubleSided" : true,
            "name" : "Metal",
            "pbrMetallicRoughness" : {
                "baseColorFactor" : [
                    0.44999998807907104,
                    0.44999998807907104,
                    0.44999998807907104,
                    1
                ],
                "roughnessFactor" : 0.4000000059604645
            }
        },
        {
            "doubleSided" : true,
            "name" : "Cover",
            "pbrMetallicRoughness" : {
                "baseColorFactor" : [
                    0,
                    0,
                    0,
                    1
                ],
                "metallicFactor" : 0.20000000298023224,
                "roughnessFactor" : 0.800000011920929
            }
        },
        {
            "doubleSided" : true,
            "name" : "EngineCover",
            "pbrMetallicRoughness" : {
                "baseColorFactor" : [
                    0.029098937287926674,
                    0.029098937287926674,
                    0.029098937287926674,
                    1
                ],
                "metallicFactor" : 0.20000000298023224
            }
        }
    ],
    "meshes" : [
        {
            "name" : "Mesh.013",
            "primitives" : [
                {
                    "attributes" : {
                        "POSITION" : 0,
                        "NORMAL" : 1,
                        "TEXCOORD_0" : 2
                    },
                    "indices" : 3,
                    "material" : 0
                }
            ]
        },
        {
            "name" : "Mesh.012",
            "primitives" : [
                {
                    "attributes" : {
                        "POSITION" : 4,
                        "NORMAL" : 5,
                        "TEXCOORD_0" : 6
                    },
                    "indices" : 7,
                    "material" : 0
                }
            ]
        },
        {
            "name" : "Mesh.014",
            "primitives" : [
                {
                    "attributes" : {
                        "POSITION" : 8,
                        "NORMAL" : 9,
                        "TEXCOORD_0" : 10
                    },
                    "indices" : 3,
                    "material" : 0
                }
            ]
        },
        {
            "name" : "Mesh.011",
            "primitives" : [
                {
                    "attributes" : {
                        "POSITION" : 11,
                        "NORMAL" : 12,
                        "TEXCOORD_0" : 13
                    },
                    "indices" : 7,
                    "material" : 0
                }
            ]
        },
        {
            "name" : "Mesh.010",
            "primitives" : [
                {
                    "attributes" : {
                        "POSITION" : 14,
                        "NORMAL" : 15,
                        "TEXCOORD_0" : 16
                    },
                    "indices" : 17,
                    "material" : 1
                },
                {
                    "attributes" : {
                        "POSITION" : 18,
                        "NORMAL" : 19,
                        "TEXCOORD_0" : 20
                    },
                    "indices" : 21,
                    "material" : 2
                },
                {
                    "attributes" : {
                        "POSITION" : 22,
                        "NORMAL" : 23,
                        "TEXCOORD_0" : 24
                    },
                    "indices" : 25,
                    "material" : 3
                },
                {
                    "attributes" : {
                        "POSITION" : 26,
                        "NORMAL" : 27,
                        "TEXCOORD_0" : 28
                    },
                    "indices" : 29,
                    "material" : 4
                },
                {
                    "attributes" : {
                        "POSITION" : 30,
                        "NORMAL" : 31,
                        "TEXCOORD_0" : 32
                    },
                    "indices" : 33,
                    "material" : 5
                }
            ]
        }
    ],
    "accessors" : [
        {
            "bufferView" : 0,
            "componentType" : 5126,
            "count" : 85,
            "max" : [
                0.3169288635253906,
                0.5552160739898682,
                0.5552177429199219
            ],
            "min" : [
                0,
                -0.5552178025245667,
                -0.5552176237106323
            ],
            "type" : "VEC3"
        },
        {
            "bufferView" : 1,
            "componentType" : 5126,
            "count" : 85,
            "type" : "VEC3"
        },
        {
            "bufferView" : 2,
            "componentType" : 5126,
            "count" : 85,
            "type" : "VEC2"
        },
        {
            "bufferView" : 3,
            "componentType" : 5123,
            "count" : 138,
            "type" : "SCALAR"
        },
        {
            "bufferView" : 4,
            "componentType" : 5126,
            "count" : 85,
            "max" : [
                0,
                0.5552160739898682,
                0.5552177429199219
            ],
            "min" : [
                -0.3169288635253906,
                -0.5552178025245667,
                -0.5552176237106323
            ],
            "type" : "VEC3"
        },
        {
            "bufferView" : 5,
            "componentType" : 5126,
            "count" : 85,
            "type" : "VEC3"
        },
        {
            "bufferView" : 6,
            "componentType" : 5126,
            "count" : 85,
            "type" : "VEC2"
        },
        {
            "bufferView" : 7,
            "componentType" : 5123,
            "count" : 138,
            "type" : "SCALAR"
        },
        {
            "bufferView" : 8,
            "componentType" : 5126,
            "count" : 85,
            "max" : [
                0.3169288635253906,
                0.5552161335945129,
                0.5552182197570801
            ],
            "min" : [
                0,
                -0.5552178025245667,
                -0.5552172660827637
            ],
            "type" : "VEC3"
        },
        {
            "bufferView" : 9,
            "componentType" : 5126,
            "count" : 85,
            "type" : "VEC3"
        },
        {
            "bufferView" : 10,
            "componentType" : 5126,
            "count" : 85,
            "type" : "VEC2"
        },
        {
            "bufferView" : 11,
            "componentType" : 5126,
            "count" : 85,
            "max" : [
                0,
                0.5552161335945129,
                0.5552182197570801
            ],
            "min" : [
                -0.3169288635253906,
                -0.5552178025245667,
                -0.5552172660827637
            ],
            "type" : "VEC3"
        },
        {
            "bufferView" : 12,
            "componentType" : 5126,
            "count" : 85,
            "type" : "VEC3"
        },
        {
            "bufferView" : 13,
            "componentType" : 5126,
            "count" : 85,
            "type" : "VEC2"
        },
        {
            "bufferView" : 14,
            "componentType" : 5126,
            "count" : 562,
            "max" : [
                1.663055419921875,
                2.3770015239715576,
                3.7423593997955322
            ],
            "min" : [
                -1.6630592346191406,
                0.31170016527175903,
                -3.831357717514038
            ],
            "type" : "VEC3"
        },
        {
            "bufferView" : 15,
            "componentType" : 5126,
            "count" : 562,
            "type" : "VEC3"
        },
        {
            "bufferView" : 16,
            "componentType" : 5126,
            "count" : 562,
            "type" : "VEC2"
        },
        {
            "bufferView" : 17,
            "componentType" : 5123,
            "count" : 1239,
            "type" : "SCALAR"
        },
        {
            "bufferView" : 18,
            "componentType" : 5126,
            "count" : 60,
            "max" : [
                1.6386833190917969,
                2.298300266265869,
                3.6782000064849854
            ],
            "min" : [
                -1.6386909484863281,
                1.0458152294158936,
                -3.8313558101654053
            ],
            "type" : "VEC3"
        },
        {
            "bufferView" : 19,
            "componentType" : 5126,
            "count" : 60,
            "type" : "VEC3"
        },
        {
            "bufferView" : 20,
            "componentType" : 5126,
            "count" : 60,
            "type" : "VEC2"
        },
        {
            "bufferView" : 21,
            "componentType" : 5123,
            "count" : 96,
            "type" : "SCALAR"
        },
        {
            "bufferView" : 22,
            "componentType" : 5126,
            "count" : 278,
            "max" : [
                1.2352180480957031,
                2.1485705375671387,
                3.93227219581604
            ],
            "min" : [
                -1.2352256774902344,
                0.6593345999717712,
                -3.932250738143921
            ],
            "type" : "VEC3"
        },
        {
            "bufferView" : 23,
            "componentType" : 5126,
            "count" : 278,
            "type" : "VEC3"
        },
        {
            "bufferView" : 24,
            "componentType" : 5126,
            "count" : 278,
            "type" : "VEC2"
        },
        {
            "bufferView" : 25,
            "componentType" : 5123,
            "count" : 540,
            "type" : "SCALAR"
        },
        {
            "bufferView" : 26,
            "componentType" : 5126,
            "count" : 66,
            "max" : [
                1.663055419921875,
                1.7512043714523315,
                3.6782000064849854
            ],
            "min" : [
                -1.6630592346191406,
                0.9605708122253418,
                -1.4832799434661865
            ],
            "type" : "VEC3"
        },
        {
            "bufferView" : 27,
            "componentType" : 5126,
            "count" : 66,
            "type" : "VEC3"
        },
        {
            "bufferView" : 28,
            "componentType" : 5126,
            "count" : 66,
            "type" : "VEC2"
        },
        {
            "bufferView" : 29,
            "componentType" : 5123,
            "count" : 108,
            "type" : "SCALAR"
        },
        {
            "bufferView" : 30,
            "componentType" : 5126,
            "count" : 56,
            "max" : [
                1.3525581359863281,
                2.101029634475708,
                3.6782000064849854
            ],
            "min" : [
                -1.3525657653808594,
                0.31170016527175903,
                -3.8313558101654053
            ],
            "type" : "VEC3"
        },
        {
            "bufferView" : 31,
            "componentType" : 5126,
            "count" : 56,
            "type" : "VEC3"
        },
        {
            "bufferView" : 32,
            "componentType" : 5126,
            "count" : 56,
            "type" : "VEC2"
        },
        {
            "bufferView" : 33,
            "componentType" : 5123,
            "count" : 120,
            "type" : "SCALAR"
        }
    ],
    "bufferViews" : [
        {
            "buffer" : 0,
            "byteLength" : 1020,
            "byteOffset" : 0
        },
        {
            "buffer" : 0,
            "byteLength" : 1020,
            "byteOffset" : 1020
        },
        {
            "buffer" : 0,
            "byteLength" : 680,
            "byteOffset" : 2040
        },
        {
            "buffer" : 0,
            "byteLength" : 276,
            "byteOffset" : 2720
        },
        {
            "buffer" : 0,
            "byteLength" : 1020,
            "byteOffset" : 2996
        },
        {
            "buffer" : 0,
            "byteLength" : 1020,
            "byteOffset" : 4016
        },
        {
            "buffer" : 0,
            "byteLength" : 680,
            "byteOffset" : 5036
        },
        {
            "buffer" : 0,
            "byteLength" : 276,
            "byteOffset" : 5716
        },
        {
            "buffer" : 0,
            "byteLength" : 1020,
            "byteOffset" : 5992
        },
        {
            "buffer" : 0,
            "byteLength" : 1020,
            "byteOffset" : 7012
        },
        {
            "buffer" : 0,
            "byteLength" : 680,
            "byteOffset" : 8032
        },
        {
            "buffer" : 0,
            "byteLength" : 1020,
            "byteOffset" : 8712
        },
        {
            "buffer" : 0,
            "byteLength" : 1020,
            "byteOffset" : 9732
        },
        {
            "buffer" : 0,
            "byteLength" : 680,
            "byteOffset" : 10752
        },
        {
            "buffer" : 0,
            "byteLength" : 6744,
            "byteOffset" : 11432
        },
        {
            "buffer" : 0,
            "byteLength" : 6744,
            "byteOffset" : 18176
        },
        {
            "buffer" : 0,
            "byteLength" : 4496,
            "byteOffset" : 24920
        },
        {
            "buffer" : 0,
            "byteLength" : 2478,
            "byteOffset" : 29416
        },
        {
            "buffer" : 0,
            "byteLength" : 720,
            "byteOffset" : 31896
        },
        {
            "buffer" : 0,
            "byteLength" : 720,
            "byteOffset" : 32616
        },
        {
            "buffer" : 0,
            "byteLength" : 480,
            "byteOffset" : 33336
        },
        {
            "buffer" : 0,
            "byteLength" : 192,
            "byteOffset" : 33816
        },
        {
            "buffer" : 0,
            "byteLength" : 3336,
            "byteOffset" : 34008
        },
        {
            "buffer" : 0,
            "byteLength" : 3336,
            "byteOffset" : 37344
        },
        {
            "buffer" : 0,
            "byteLength" : 2224,
            "byteOffset" : 40680
        },
        {
            "buffer" : 0,
            "byteLength" : 1080,
            "byteOffset" : 42904
        },
        {
            "buffer" : 0,
            "byteLength" : 792,
            "byteOffset" : 43984
        },
        {
            "buffer" : 0,
            "byteLength" : 792,
            "byteOffset" : 44776
        },
        {
            "buffer" : 0,
            "byteLength" : 528,
            "byteOffset" : 45568
        },
        {
            "buffer" : 0,
            "byteLength" : 216,
            "byteOffset" : 46096
        },
        {
            "buffer" : 0,
            "byteLength" : 672,
            "byteOffset" : 46312
        },
        {
            "buffer" : 0,
            "byteLength" : 672,
            "byteOffset" : 46984
        },
        {
            "buffer" : 0,
            "byteLength" : 448,
            "byteOffset" : 47656
        },
        {
            "buffer" : 0,
            "byteLength" : 240,
            "byteOffset" : 48104
        }
    ],
    "buffers" : [
        {
            "byteLength" : 48344,
            "uri" : "derby_car.bin"
        }
    ]
}
