{
    "asset" : {
        "generator" : "Khronos glTF Blender I/O v3.2.43",
        "version" : "2.0"
    },
    "scene" : 0,
    "scenes" : [
        {
            "name" : "Scene",
            "nodes" : [
                4
            ]
        }
    ],
    "nodes" : [
        {
            "mesh" : 0,
            "name" : "Wheel_FL.002",
            "translation" : [
                1.6000003814697266,
                1.4083335399627686,
                3.1583333015441895
            ]
        },
        {
            "mesh" : 1,
            "name" : "Wheel_FR",
            "translation" : [
                -1.5675888061523438,
                1.4186172485351562,
                3.1676278114318848
            ]
        },
        {
            "mesh" : 2,
            "name" : "Wheel_RR",
            "translation" : [
                -1.5618247985839844,
                1.4186184406280518,
                -3.0947368144989014
            ]
        },
        {
            "mesh" : 3,
            "name" : "Wheel_RL",
            "translation" : [
                1.5675945281982422,
                1.4186184406280518,
                -3.0947368144989014
            ]
        },
        {
            "children" : [
                0,
                1,
                2,
                3
            ],
            "mesh" : 4,
            "name" : "MonsterTruck"
        }
    ],
    "materials" : [
        {
            "doubleSided" : true,
            "name" : "Wheel",
            "pbrMetallicRoughness" : {
                "baseColorFactor" : [
                    0.003095257328823209,
                    0.003095257328823209,
                    0.003095257328823209,
                    1
                ],
                "metallicFactor" : 0,
                "roughnessFactor" : 0.800000011920929
            }
        },
        {
            "doubleSided" : true,
            "name" : "Glass",
            "pbrMetallicRoughness" : {
                "baseColorFactor" : [
                    0.6382700204849243,
                    0.6382700204849243,
                    0.6382700204849243,
                    1
                ],
                "roughnessFactor" : 0.20000000298023224
            }
        },
        {
            "doubleSided" : true,
            "name" : "Metal",
            "pbrMetallicRoughness" : {
                "baseColorFactor" : [
                    0.44999998807907104,
                    0.44999998807907104,
                    0.44999998807907104,
                    1
                ],
                "roughnessFactor" : 0.4000000059604645
            }
        },
        {
            "doubleSided" : true,
            "name" : "Cover",
            "pbrMetallicRoughness" : {
                "baseColorFactor" : [
                    0,
                    0,
                    0,
                    1
                ],
                "metallicFactor" : 0.20000000298023224,
                "roughnessFactor" : 0.800000011920929
            }
        },
        {
            "doubleSided" : true,
            "name" : "EngineCover",
            "pbrMetallicRoughness" : {
                "baseColorFactor" : [
                    0.029098937287926674,
                    0.029098937287926674,
                    0.029098937287926674,
                    1
                ],
                "metallicFactor" : 0.20000000298023224
            }
        },
        {
            "doubleSided" : true,
            "name" : "Paint",
            "pbrMetallicRoughness" : {
                "baseColorFactor" : [
                    0.8000000715255737,
                    0,
                    0,
                    1
                ],
                "metallicFactor" : 0.4000000059604645,
                "roughnessFactor" : 0.699999988079071
            }
        }
    ],
    "meshes" : [
        {
            "name" : "Mesh.002",
            "primitives" : [
                {
                    "attributes" : {
                        "POSITION" : 0,
                        "NORMAL" : 1,
                        "TEXCOORD_0" : 2
                    },
                    "indices" : 3,
                    "material" : 0
                }
            ]
        },
        {
            "name" : "Mesh.003",
            "primitives" : [
                {
                    "attributes" : {
                        "POSITION" : 4,
                        "NORMAL" : 5,
                        "TEXCOORD_0" : 6
                    },
                    "indices" : 7,
                    "material" : 0
                }
            ]
        },
        {
            "name" : "Mesh.004",
            "primitives" : [
                {
                    "attributes" : {
                        "POSITION" : 8,
                        "NORMAL" : 9,
                        "TEXCOORD_0" : 10
                    },
                    "indices" : 7,
                    "material" : 0
                }
            ]
        },
        {
            "name" : "Mesh.001",
            "primitives" : [
                {
                    "attributes" : {
                        "POSITION" : 11,
                        "NORMAL" : 12,
                        "TEXCOORD_0" : 13
                    },
                    "indices" : 14,
                    "material" : 0
                }
            ]
        },
        {
            "name" : "Mesh",
            "primitives" : [
                {
                    "attributes" : {
                        "POSITION" : 15,
                        "NORMAL" : 16,
                        "TEXCOORD_0" : 17
                    },
                    "indices" : 18,
                    "material" : 1
                },
                {
                    "attributes" : {
                        "POSITION" : 19,
                        "NORMAL" : 20,
                        "TEXCOORD_0" : 21
                    },
                    "indices" : 22,
                    "material" : 2
                },
                {
                    "attributes" : {
                        "POSITION" : 23,
                        "NORMAL" : 24,
                        "TEXCOORD_0" : 25
                    },
                    "indices" : 26,
                    "material" : 3
                },
                {
                    "attributes" : {
                        "POSITION" : 27,
                        "NORMAL" : 28,
                        "TEXCOORD_0" : 29
                    },
                    "indices" : 30,
                    "material" : 4
                },
                {
                    "attributes" : {
                        "POSITION" : 31,
                        "NORMAL" : 32,
                        "TEXCOORD_0" : 33
                    },
                    "indices" : 34,
                    "material" : 5
                }
            ]
        }
    ],
    "accessors" : [
        {
            "bufferView" : 0,
            "componentType" : 5126,
            "count" : 301,
            "max" : [
                1.394601821899414,
                1.428898572921753,
                1.441666603088379
            ],
            "min" : [
                0,
                -1.4083341360092163,
                -1.4583332538604736
            ],
            "type" : "VEC3"
        },
        {
            "bufferView" : 1,
            "componentType" : 5126,
            "count" : 301,
            "type" : "VEC3"
        },
        {
            "bufferView" : 2,
            "componentType" : 5126,
            "count" : 301,
            "type" : "VEC2"
        },
        {
            "bufferView" : 3,
            "componentType" : 5123,
            "count" : 498,
            "type" : "SCALAR"
        },
        {
            "bufferView" : 4,
            "componentType" : 5126,
            "count" : 301,
            "max" : [
                0,
                1.4186148643493652,
                1.4186229705810547
            ],
            "min" : [
                -1.432769775390625,
                -1.418617844581604,
                -1.4186192750930786
            ],
            "type" : "VEC3"
        },
        {
            "bufferView" : 5,
            "componentType" : 5126,
            "count" : 301,
            "type" : "VEC3"
        },
        {
            "bufferView" : 6,
            "componentType" : 5126,
            "count" : 301,
            "type" : "VEC2"
        },
        {
            "bufferView" : 7,
            "componentType" : 5123,
            "count" : 498,
            "type" : "SCALAR"
        },
        {
            "bufferView" : 8,
            "componentType" : 5126,
            "count" : 301,
            "max" : [
                0,
                1.4186148643493652,
                1.418620228767395
            ],
            "min" : [
                -1.432769775390625,
                -1.4186179637908936,
                -1.418614149093628
            ],
            "type" : "VEC3"
        },
        {
            "bufferView" : 9,
            "componentType" : 5126,
            "count" : 301,
            "type" : "VEC3"
        },
        {
            "bufferView" : 10,
            "componentType" : 5126,
            "count" : 301,
            "type" : "VEC2"
        },
        {
            "bufferView" : 11,
            "componentType" : 5126,
            "count" : 301,
            "max" : [
                1.432769775390625,
                1.4186148643493652,
                1.418620228767395
            ],
            "min" : [
                0,
                -1.4186179637908936,
                -1.418614149093628
            ],
            "type" : "VEC3"
        },
        {
            "bufferView" : 12,
            "componentType" : 5126,
            "count" : 301,
            "type" : "VEC3"
        },
        {
            "bufferView" : 13,
            "componentType" : 5126,
            "count" : 301,
            "type" : "VEC2"
        },
        {
            "bufferView" : 14,
            "componentType" : 5123,
            "count" : 498,
            "type" : "SCALAR"
        },
        {
            "bufferView" : 15,
            "componentType" : 5126,
            "count" : 77,
            "max" : [
                2.039154052734375,
                5.761205196380615,
                4.256356239318848
            ],
            "min" : [
                -2.0449142456054688,
                4.1542134284973145,
                -4.063506603240967
            ],
            "type" : "VEC3"
        },
        {
            "bufferView" : 16,
            "componentType" : 5126,
            "count" : 77,
            "type" : "VEC3"
        },
        {
            "bufferView" : 17,
            "componentType" : 5126,
            "count" : 77,
            "type" : "VEC2"
        },
        {
            "bufferView" : 18,
            "componentType" : 5123,
            "count" : 126,
            "type" : "SCALAR"
        },
        {
            "bufferView" : 19,
            "componentType" : 5126,
            "count" : 818,
            "max" : [
                2.3015594482421875,
                5.808094024658203,
                4.43270206451416
            ],
            "min" : [
                -2.30035400390625,
                1.182474970817566,
                -4.586257457733154
            ],
            "type" : "VEC3"
        },
        {
            "bufferView" : 20,
            "componentType" : 5126,
            "count" : 818,
            "type" : "VEC3"
        },
        {
            "bufferView" : 21,
            "componentType" : 5126,
            "count" : 818,
            "type" : "VEC2"
        },
        {
            "bufferView" : 22,
            "componentType" : 5123,
            "count" : 1494,
            "type" : "SCALAR"
        },
        {
            "bufferView" : 23,
            "componentType" : 5126,
            "count" : 749,
            "max" : [
                2.0694446563720703,
                5.749209403991699,
                4.482372760772705
            ],
            "min" : [
                -2.0752029418945312,
                1.0470507144927979,
                -4.259322643280029
            ],
            "type" : "VEC3"
        },
        {
            "bufferView" : 24,
            "componentType" : 5126,
            "count" : 749,
            "type" : "VEC3"
        },
        {
            "bufferView" : 25,
            "componentType" : 5126,
            "count" : 749,
            "type" : "VEC2"
        },
        {
            "bufferView" : 26,
            "componentType" : 5123,
            "count" : 1446,
            "type" : "SCALAR"
        },
        {
            "bufferView" : 27,
            "componentType" : 5126,
            "count" : 72,
            "max" : [
                1.6517982482910156,
                4.094090938568115,
                4.101898670196533
            ],
            "min" : [
                -1.6460304260253906,
                2.629732847213745,
                -3.961944341659546
            ],
            "type" : "VEC3"
        },
        {
            "bufferView" : 28,
            "componentType" : 5126,
            "count" : 72,
            "type" : "VEC3"
        },
        {
            "bufferView" : 29,
            "componentType" : 5126,
            "count" : 72,
            "type" : "VEC2"
        },
        {
            "bufferView" : 30,
            "componentType" : 5123,
            "count" : 150,
            "type" : "SCALAR"
        },
        {
            "bufferView" : 31,
            "componentType" : 5126,
            "count" : 551,
            "max" : [
                2.0694446563720703,
                5.816694736480713,
                4.482372760772705
            ],
            "min" : [
                -2.0752029418945312,
                1.182474970817566,
                -4.259322643280029
            ],
            "type" : "VEC3"
        },
        {
            "bufferView" : 32,
            "componentType" : 5126,
            "count" : 551,
            "type" : "VEC3"
        },
        {
            "bufferView" : 33,
            "componentType" : 5126,
            "count" : 551,
            "type" : "VEC2"
        },
        {
            "bufferView" : 34,
            "componentType" : 5123,
            "count" : 1248,
            "type" : "SCALAR"
        }
    ],
    "bufferViews" : [
        {
            "buffer" : 0,
            "byteLength" : 3612,
            "byteOffset" : 0
        },
        {
            "buffer" : 0,
            "byteLength" : 3612,
            "byteOffset" : 3612
        },
        {
            "buffer" : 0,
            "byteLength" : 2408,
            "byteOffset" : 7224
        },
        {
            "buffer" : 0,
            "byteLength" : 996,
            "byteOffset" : 9632
        },
        {
            "buffer" : 0,
            "byteLength" : 3612,
            "byteOffset" : 10628
        },
        {
            "buffer" : 0,
            "byteLength" : 3612,
            "byteOffset" : 14240
        },
        {
            "buffer" : 0,
            "byteLength" : 2408,
            "byteOffset" : 17852
        },
        {
            "buffer" : 0,
            "byteLength" : 996,
            "byteOffset" : 20260
        },
        {
            "buffer" : 0,
            "byteLength" : 3612,
            "byteOffset" : 21256
        },
        {
            "buffer" : 0,
            "byteLength" : 3612,
            "byteOffset" : 24868
        },
        {
            "buffer" : 0,
            "byteLength" : 2408,
            "byteOffset" : 28480
        },
        {
            "buffer" : 0,
            "byteLength" : 3612,
            "byteOffset" : 30888
        },
        {
            "buffer" : 0,
            "byteLength" : 3612,
            "byteOffset" : 34500
        },
        {
            "buffer" : 0,
            "byteLength" : 2408,
            "byteOffset" : 38112
        },
        {
            "buffer" : 0,
            "byteLength" : 996,
            "byteOffset" : 40520
        },
        {
            "buffer" : 0,
            "byteLength" : 924,
            "byteOffset" : 41516
        },
        {
            "buffer" : 0,
            "byteLength" : 924,
            "byteOffset" : 42440
        },
        {
            "buffer" : 0,
            "byteLength" : 616,
            "byteOffset" : 43364
        },
        {
            "buffer" : 0,
            "byteLength" : 252,
            "byteOffset" : 43980
        },
        {
            "buffer" : 0,
            "byteLength" : 9816,
            "byteOffset" : 44232
        },
        {
            "buffer" : 0,
            "byteLength" : 9816,
            "byteOffset" : 54048
        },
        {
            "buffer" : 0,
            "byteLength" : 6544,
            "byteOffset" : 63864
        },
        {
            "buffer" : 0,
            "byteLength" : 2988,
            "byteOffset" : 70408
        },
        {
            "buffer" : 0,
            "byteLength" : 8988,
            "byteOffset" : 73396
        },
        {
            "buffer" : 0,
            "byteLength" : 8988,
            "byteOffset" : 82384
        },
        {
            "buffer" : 0,
            "byteLength" : 5992,
            "byteOffset" : 91372
        },
        {
            "buffer" : 0,
            "byteLength" : 2892,
            "byteOffset" : 97364
        },
        {
            "buffer" : 0,
            "byteLength" : 864,
            "byteOffset" : 100256
        },
        {
            "buffer" : 0,
            "byteLength" : 864,
            "byteOffset" : 101120
        },
        {
            "buffer" : 0,
            "byteLength" : 576,
            "byteOffset" : 101984
        },
        {
            "buffer" : 0,
            "byteLength" : 300,
            "byteOffset" : 102560
        },
        {
            "buffer" : 0,
            "byteLength" : 6612,
            "byteOffset" : 102860
        },
        {
            "buffer" : 0,
            "byteLength" : 6612,
            "byteOffset" : 109472
        },
        {
            "buffer" : 0,
            "byteLength" : 4408,
            "byteOffset" : 116084
        },
        {
            "buffer" : 0,
            "byteLength" : 2496,
            "byteOffset" : 120492
        }
    ],
    "buffers" : [
        {
            "byteLength" : 122988,
            "uri" : "monster_truck.bin"
        }
    ]
}
