{
    "asset" : {
        "generator" : "Khronos glTF Blender I/O v3.2.43",
        "version" : "2.0"
    },
    "scene" : 0,
    "scenes" : [
        {
            "name" : "Scene",
            "nodes" : [
                4
            ]
        }
    ],
    "nodes" : [
        {
            "mesh" : 0,
            "name" : "SR_Veh_RacingTruck_Wheel_FL",
            "translation" : [
                1.6529226303100586,
                0.8313774466514587,
                3.0905869007110596
            ]
        },
        {
            "mesh" : 1,
            "name" : "SR_Veh_RacingTruck_Wheel_FR",
            "translation" : [
                -1.6529254913330078,
                0.8313774466514587,
                3.0905869007110596
            ]
        },
        {
            "mesh" : 2,
            "name" : "SR_Veh_RacingTruck_Wheel_RL",
            "translation" : [
                1.2037115097045898,
                0.9880331158638,
                -3.449453830718994
            ]
        },
        {
            "mesh" : 3,
            "name" : "SR_Veh_RacingTruck_Wheel_RR",
            "translation" : [
                -1.2037076950073242,
                0.9880331158638,
                -3.4494593143463135
            ]
        },
        {
            "children" : [
                0,
                1,
                2,
                3
            ],
            "mesh" : 4,
            "name" : "RacingTruck",
            "translation" : [
                -10,
                0,
                0
            ]
        }
    ],
    "materials" : [
        {
            "doubleSided" : true,
            "name" : "Wheel",
            "pbrMetallicRoughness" : {
                "baseColorFactor" : [
                    0.003095257328823209,
                    0.003095257328823209,
                    0.003095257328823209,
                    1
                ],
                "metallicFactor" : 0,
                "roughnessFactor" : 0.800000011920929
            }
        },
        {
            "doubleSided" : true,
            "name" : "Paint",
            "pbrMetallicRoughness" : {
                "baseColorFactor" : [
                    0.8000000715255737,
                    0,
                    0,
                    1
                ],
                "metallicFactor" : 0.4000000059604645,
                "roughnessFactor" : 0.699999988079071
            }
        },
        {
            "doubleSided" : true,
            "name" : "Cover",
            "pbrMetallicRoughness" : {
                "baseColorFactor" : [
                    0,
                    0,
                    0,
                    1
                ],
                "metallicFactor" : 0.20000000298023224,
                "roughnessFactor" : 0.800000011920929
            }
        },
        {
            "doubleSided" : true,
            "name" : "EngineCover",
            "pbrMetallicRoughness" : {
                "baseColorFactor" : [
                    0.029098937287926674,
                    0.029098937287926674,
                    0.029098937287926674,
                    1
                ],
                "metallicFactor" : 0.20000000298023224
            }
        },
        {
            "doubleSided" : true,
            "name" : "Glass",
            "pbrMetallicRoughness" : {
                "baseColorFactor" : [
                    0.6382700204849243,
                    0.6382700204849243,
                    0.6382700204849243,
                    1
                ],
                "roughnessFactor" : 0.20000000298023224
            }
        },
        {
            "doubleSided" : true,
            "name" : "Metal",
            "pbrMetallicRoughness" : {
                "baseColorFactor" : [
                    0.44999998807907104,
                    0.44999998807907104,
                    0.44999998807907104,
                    1
                ],
                "roughnessFactor" : 0.4000000059604645
            }
        }
    ],
    "meshes" : [
        {
            "name" : "Mesh.044",
            "primitives" : [
                {
                    "attributes" : {
                        "POSITION" : 0,
                        "NORMAL" : 1,
                        "TEXCOORD_0" : 2
                    },
                    "indices" : 3,
                    "material" : 0
                }
            ]
        },
        {
            "name" : "Mesh.043",
            "primitives" : [
                {
                    "attributes" : {
                        "POSITION" : 4,
                        "NORMAL" : 5,
                        "TEXCOORD_0" : 6
                    },
                    "indices" : 7,
                    "material" : 0
                }
            ]
        },
        {
            "name" : "Mesh.041",
            "primitives" : [
                {
                    "attributes" : {
                        "POSITION" : 8,
                        "NORMAL" : 9,
                        "TEXCOORD_0" : 10
                    },
                    "indices" : 11,
                    "material" : 0
                }
            ]
        },
        {
            "name" : "Mesh.042",
            "primitives" : [
                {
                    "attributes" : {
                        "POSITION" : 12,
                        "NORMAL" : 13,
                        "TEXCOORD_0" : 14
                    },
                    "indices" : 15,
                    "material" : 0
                }
            ]
        },
        {
            "name" : "Mesh.040",
            "primitives" : [
                {
                    "attributes" : {
                        "POSITION" : 16,
                        "NORMAL" : 17,
                        "TEXCOORD_0" : 18,
                        "TEXCOORD_1" : 19
                    },
                    "indices" : 20,
                    "material" : 1
                },
                {
                    "attributes" : {
                        "POSITION" : 21,
                        "NORMAL" : 22,
                        "TEXCOORD_0" : 23,
                        "TEXCOORD_1" : 24
                    },
                    "indices" : 25,
                    "material" : 2
                },
                {
                    "attributes" : {
                        "POSITION" : 26,
                        "NORMAL" : 27,
                        "TEXCOORD_0" : 28,
                        "TEXCOORD_1" : 29
                    },
                    "indices" : 30,
                    "material" : 3
                },
                {
                    "attributes" : {
                        "POSITION" : 31,
                        "NORMAL" : 32,
                        "TEXCOORD_0" : 33,
                        "TEXCOORD_1" : 34
                    },
                    "indices" : 35,
                    "material" : 4
                },
                {
                    "attributes" : {
                        "POSITION" : 36,
                        "NORMAL" : 37,
                        "TEXCOORD_0" : 38,
                        "TEXCOORD_1" : 39
                    },
                    "indices" : 40,
                    "material" : 5
                }
            ]
        }
    ],
    "accessors" : [
        {
            "bufferView" : 0,
            "componentType" : 5126,
            "count" : 98,
            "max" : [
                0.586003303527832,
                0.8313787579536438,
                0.8313875198364258
            ],
            "min" : [
                -9.5367431640625e-07,
                -0.8313779234886169,
                -0.8313779830932617
            ],
            "type" : "VEC3"
        },
        {
            "bufferView" : 1,
            "componentType" : 5126,
            "count" : 98,
            "type" : "VEC3"
        },
        {
            "bufferView" : 2,
            "componentType" : 5126,
            "count" : 98,
            "type" : "VEC2"
        },
        {
            "bufferView" : 3,
            "componentType" : 5123,
            "count" : 144,
            "type" : "SCALAR"
        },
        {
            "bufferView" : 4,
            "componentType" : 5126,
            "count" : 98,
            "max" : [
                0,
                0.8313787579536438,
                0.8313875198364258
            ],
            "min" : [
                -0.5860042572021484,
                -0.8313779234886169,
                -0.8313703536987305
            ],
            "type" : "VEC3"
        },
        {
            "bufferView" : 5,
            "componentType" : 5126,
            "count" : 98,
            "type" : "VEC3"
        },
        {
            "bufferView" : 6,
            "componentType" : 5126,
            "count" : 98,
            "type" : "VEC2"
        },
        {
            "bufferView" : 7,
            "componentType" : 5123,
            "count" : 144,
            "type" : "SCALAR"
        },
        {
            "bufferView" : 8,
            "componentType" : 5126,
            "count" : 98,
            "max" : [
                1.0352144241333008,
                0.9855471253395081,
                0.985548734664917
            ],
            "min" : [
                -9.5367431640625e-07,
                -0.9855461716651917,
                -0.9855589866638184
            ],
            "type" : "VEC3"
        },
        {
            "bufferView" : 9,
            "componentType" : 5126,
            "count" : 98,
            "type" : "VEC3"
        },
        {
            "bufferView" : 10,
            "componentType" : 5126,
            "count" : 98,
            "type" : "VEC2"
        },
        {
            "bufferView" : 11,
            "componentType" : 5123,
            "count" : 144,
            "type" : "SCALAR"
        },
        {
            "bufferView" : 12,
            "componentType" : 5126,
            "count" : 98,
            "max" : [
                -9.5367431640625e-07,
                0.9855471253395081,
                0.9855542182922363
            ],
            "min" : [
                -1.035222053527832,
                -0.9855461716651917,
                -0.985553503036499
            ],
            "type" : "VEC3"
        },
        {
            "bufferView" : 13,
            "componentType" : 5126,
            "count" : 98,
            "type" : "VEC3"
        },
        {
            "bufferView" : 14,
            "componentType" : 5126,
            "count" : 98,
            "type" : "VEC2"
        },
        {
            "bufferView" : 15,
            "componentType" : 5123,
            "count" : 144,
            "type" : "SCALAR"
        },
        {
            "bufferView" : 16,
            "componentType" : 5126,
            "count" : 269,
            "max" : [
                2.4537086486816406,
                4.992216110229492,
                5.219696044921875
            ],
            "min" : [
                -2.4537086486816406,
                0.5101043581962585,
                -5.219696044921875
            ],
            "type" : "VEC3"
        },
        {
            "bufferView" : 17,
            "componentType" : 5126,
            "count" : 269,
            "type" : "VEC3"
        },
        {
            "bufferView" : 18,
            "componentType" : 5126,
            "count" : 269,
            "type" : "VEC2"
        },
        {
            "bufferView" : 19,
            "componentType" : 5126,
            "count" : 269,
            "type" : "VEC2"
        },
        {
            "bufferView" : 20,
            "componentType" : 5123,
            "count" : 603,
            "type" : "SCALAR"
        },
        {
            "bufferView" : 21,
            "componentType" : 5126,
            "count" : 520,
            "max" : [
                2.4537086486816406,
                5.169013023376465,
                5.219696044921875
            ],
            "min" : [
                -2.4537086486816406,
                0.510104238986969,
                -5.219696044921875
            ],
            "type" : "VEC3"
        },
        {
            "bufferView" : 22,
            "componentType" : 5126,
            "count" : 520,
            "type" : "VEC3"
        },
        {
            "bufferView" : 23,
            "componentType" : 5126,
            "count" : 520,
            "type" : "VEC2"
        },
        {
            "bufferView" : 24,
            "componentType" : 5126,
            "count" : 520,
            "type" : "VEC2"
        },
        {
            "bufferView" : 25,
            "componentType" : 5123,
            "count" : 981,
            "type" : "SCALAR"
        },
        {
            "bufferView" : 26,
            "componentType" : 5126,
            "count" : 54,
            "max" : [
                2.145191192626953,
                5.891402244567871,
                5.219696044921875
            ],
            "min" : [
                -2.145191192626953,
                0.510104238986969,
                -4.81097412109375
            ],
            "type" : "VEC3"
        },
        {
            "bufferView" : 27,
            "componentType" : 5126,
            "count" : 54,
            "type" : "VEC3"
        },
        {
            "bufferView" : 28,
            "componentType" : 5126,
            "count" : 54,
            "type" : "VEC2"
        },
        {
            "bufferView" : 29,
            "componentType" : 5126,
            "count" : 54,
            "type" : "VEC2"
        },
        {
            "bufferView" : 30,
            "componentType" : 5123,
            "count" : 114,
            "type" : "SCALAR"
        },
        {
            "bufferView" : 31,
            "componentType" : 5126,
            "count" : 52,
            "max" : [
                2.399547576904297,
                4.778859615325928,
                4.738373756408691
            ],
            "min" : [
                -2.3949851989746094,
                1.2585893869400024,
                -5.136749267578125
            ],
            "type" : "VEC3"
        },
        {
            "bufferView" : 32,
            "componentType" : 5126,
            "count" : 52,
            "type" : "VEC3"
        },
        {
            "bufferView" : 33,
            "componentType" : 5126,
            "count" : 52,
            "type" : "VEC2"
        },
        {
            "bufferView" : 34,
            "componentType" : 5126,
            "count" : 52,
            "type" : "VEC2"
        },
        {
            "bufferView" : 35,
            "componentType" : 5123,
            "count" : 78,
            "type" : "SCALAR"
        },
        {
            "bufferView" : 36,
            "componentType" : 5126,
            "count" : 252,
            "max" : [
                1.9994087219238281,
                5.941073417663574,
                4.738373279571533
            ],
            "min" : [
                -1.9994087219238281,
                0.704032838344574,
                -5.136749267578125
            ],
            "type" : "VEC3"
        },
        {
            "bufferView" : 37,
            "componentType" : 5126,
            "count" : 252,
            "type" : "VEC3"
        },
        {
            "bufferView" : 38,
            "componentType" : 5126,
            "count" : 252,
            "type" : "VEC2"
        },
        {
            "bufferView" : 39,
            "componentType" : 5126,
            "count" : 252,
            "type" : "VEC2"
        },
        {
            "bufferView" : 40,
            "componentType" : 5123,
            "count" : 492,
            "type" : "SCALAR"
        }
    ],
    "bufferViews" : [
        {
            "buffer" : 0,
            "byteLength" : 1176,
            "byteOffset" : 0
        },
        {
            "buffer" : 0,
            "byteLength" : 1176,
            "byteOffset" : 1176
        },
        {
            "buffer" : 0,
            "byteLength" : 784,
            "byteOffset" : 2352
        },
        {
            "buffer" : 0,
            "byteLength" : 288,
            "byteOffset" : 3136
        },
        {
            "buffer" : 0,
            "byteLength" : 1176,
            "byteOffset" : 3424
        },
        {
            "buffer" : 0,
            "byteLength" : 1176,
            "byteOffset" : 4600
        },
        {
            "buffer" : 0,
            "byteLength" : 784,
            "byteOffset" : 5776
        },
        {
            "buffer" : 0,
            "byteLength" : 288,
            "byteOffset" : 6560
        },
        {
            "buffer" : 0,
            "byteLength" : 1176,
            "byteOffset" : 6848
        },
        {
            "buffer" : 0,
            "byteLength" : 1176,
            "byteOffset" : 8024
        },
        {
            "buffer" : 0,
            "byteLength" : 784,
            "byteOffset" : 9200
        },
        {
            "buffer" : 0,
            "byteLength" : 288,
            "byteOffset" : 9984
        },
        {
            "buffer" : 0,
            "byteLength" : 1176,
            "byteOffset" : 10272
        },
        {
            "buffer" : 0,
            "byteLength" : 1176,
            "byteOffset" : 11448
        },
        {
            "buffer" : 0,
            "byteLength" : 784,
            "byteOffset" : 12624
        },
        {
            "buffer" : 0,
            "byteLength" : 288,
            "byteOffset" : 13408
        },
        {
            "buffer" : 0,
            "byteLength" : 3228,
            "byteOffset" : 13696
        },
        {
            "buffer" : 0,
            "byteLength" : 3228,
            "byteOffset" : 16924
        },
        {
            "buffer" : 0,
            "byteLength" : 2152,
            "byteOffset" : 20152
        },
        {
            "buffer" : 0,
            "byteLength" : 2152,
            "byteOffset" : 22304
        },
        {
            "buffer" : 0,
            "byteLength" : 1206,
            "byteOffset" : 24456
        },
        {
            "buffer" : 0,
            "byteLength" : 6240,
            "byteOffset" : 25664
        },
        {
            "buffer" : 0,
            "byteLength" : 6240,
            "byteOffset" : 31904
        },
        {
            "buffer" : 0,
            "byteLength" : 4160,
            "byteOffset" : 38144
        },
        {
            "buffer" : 0,
            "byteLength" : 4160,
            "byteOffset" : 42304
        },
        {
            "buffer" : 0,
            "byteLength" : 1962,
            "byteOffset" : 46464
        },
        {
            "buffer" : 0,
            "byteLength" : 648,
            "byteOffset" : 48428
        },
        {
            "buffer" : 0,
            "byteLength" : 648,
            "byteOffset" : 49076
        },
        {
            "buffer" : 0,
            "byteLength" : 432,
            "byteOffset" : 49724
        },
        {
            "buffer" : 0,
            "byteLength" : 432,
            "byteOffset" : 50156
        },
        {
            "buffer" : 0,
            "byteLength" : 228,
            "byteOffset" : 50588
        },
        {
            "buffer" : 0,
            "byteLength" : 624,
            "byteOffset" : 50816
        },
        {
            "buffer" : 0,
            "byteLength" : 624,
            "byteOffset" : 51440
        },
        {
            "buffer" : 0,
            "byteLength" : 416,
            "byteOffset" : 52064
        },
        {
            "buffer" : 0,
            "byteLength" : 416,
            "byteOffset" : 52480
        },
        {
            "buffer" : 0,
            "byteLength" : 156,
            "byteOffset" : 52896
        },
        {
            "buffer" : 0,
            "byteLength" : 3024,
            "byteOffset" : 53052
        },
        {
            "buffer" : 0,
            "byteLength" : 3024,
            "byteOffset" : 56076
        },
        {
            "buffer" : 0,
            "byteLength" : 2016,
            "byteOffset" : 59100
        },
        {
            "buffer" : 0,
            "byteLength" : 2016,
            "byteOffset" : 61116
        },
        {
            "buffer" : 0,
            "byteLength" : 984,
            "byteOffset" : 63132
        }
    ],
    "buffers" : [
        {
            "byteLength" : 64116,
            "uri" : "racing_truck.bin"
        }
    ]
}
