{
    "asset" : {
        "generator" : "Khronos glTF Blender I/O v3.2.43",
        "version" : "2.0"
    },
    "scene" : 0,
    "scenes" : [
        {
            "name" : "Scene",
            "nodes" : [
                4
            ]
        }
    ],
    "nodes" : [
        {
            "mesh" : 0,
            "name" : "Wheel_FL.001",
            "translation" : [
                1.2818183898925781,
                0.6548247933387756,
                2.393734931945801
            ]
        },
        {
            "mesh" : 1,
            "name" : "Wheel_FR.001",
            "translation" : [
                -1.2818183898925781,
                0.6548243165016174,
                2.393733501434326
            ]
        },
        {
            "mesh" : 2,
            "name" : "Wheel_RL.001",
            "translation" : [
                1.1001205444335938,
                0.8064967393875122,
                -1.5786104202270508
            ]
        },
        {
            "mesh" : 3,
            "name" : "Wheel_RR.001",
            "translation" : [
                -1.1001167297363281,
                0.8064964413642883,
                -1.5786107778549194
            ]
        },
        {
            "children" : [
                0,
                1,
                2,
                3
            ],
            "mesh" : 4,
            "name" : "SprintCar",
            "translation" : [
                -60,
                0,
                0
            ]
        }
    ],
    "materials" : [
        {
            "doubleSided" : true,
            "name" : "Wheel",
            "pbrMetallicRoughness" : {
                "baseColorFactor" : [
                    0.003095257328823209,
                    0.003095257328823209,
                    0.003095257328823209,
                    1
                ],
                "metallicFactor" : 0,
                "roughnessFactor" : 0.800000011920929
            }
        },
        {
            "doubleSided" : true,
            "name" : "Paint",
            "pbrMetallicRoughness" : {
                "baseColorFactor" : [
                    0.8000000715255737,
                    0,
                    0,
                    1
                ],
                "metallicFactor" : 0.4000000059604645,
                "roughnessFactor" : 0.699999988079071
            }
        },
        {
            "doubleSided" : true,
            "name" : "Metal",
            "pbrMetallicRoughness" : {
                "baseColorFactor" : [
                    0.44999998807907104,
                    0.44999998807907104,
                    0.44999998807907104,
                    1
                ],
                "roughnessFactor" : 0.4000000059604645
            }
        },
        {
            "doubleSided" : true,
            "name" : "Cover",
            "pbrMetallicRoughness" : {
                "baseColorFactor" : [
                    0,
                    0,
                    0,
                    1
                ],
                "metallicFactor" : 0.20000000298023224,
                "roughnessFactor" : 0.800000011920929
            }
        },
        {
            "doubleSided" : true,
            "name" : "Leather",
            "pbrMetallicRoughness" : {
                "baseColorFactor" : [
                    0,
                    0,
                    0,
                    1
                ],
                "metallicFactor" : 0,
                "roughnessFactor" : 0.5
            }
        }
    ],
    "meshes" : [
        {
            "name" : "Mesh.006",
            "primitives" : [
                {
                    "attributes" : {
                        "POSITION" : 0,
                        "NORMAL" : 1,
                        "TEXCOORD_0" : 2
                    },
                    "indices" : 3,
                    "material" : 0
                }
            ]
        },
        {
            "name" : "Mesh.007",
            "primitives" : [
                {
                    "attributes" : {
                        "POSITION" : 4,
                        "NORMAL" : 5,
                        "TEXCOORD_0" : 6
                    },
                    "indices" : 7,
                    "material" : 0
                }
            ]
        },
        {
            "name" : "Mesh.008",
            "primitives" : [
                {
                    "attributes" : {
                        "POSITION" : 8,
                        "NORMAL" : 9,
                        "TEXCOORD_0" : 10
                    },
                    "indices" : 11,
                    "material" : 0
                }
            ]
        },
        {
            "name" : "Mesh.009",
            "primitives" : [
                {
                    "attributes" : {
                        "POSITION" : 12,
                        "NORMAL" : 13,
                        "TEXCOORD_0" : 14
                    },
                    "indices" : 15,
                    "material" : 0
                }
            ]
        },
        {
            "name" : "Mesh.005",
            "primitives" : [
                {
                    "attributes" : {
                        "POSITION" : 16,
                        "NORMAL" : 17,
                        "TEXCOORD_0" : 18
                    },
                    "indices" : 19,
                    "material" : 1
                },
                {
                    "attributes" : {
                        "POSITION" : 20,
                        "NORMAL" : 21,
                        "TEXCOORD_0" : 22
                    },
                    "indices" : 23,
                    "material" : 2
                },
                {
                    "attributes" : {
                        "POSITION" : 24,
                        "NORMAL" : 25,
                        "TEXCOORD_0" : 26
                    },
                    "indices" : 27,
                    "material" : 3
                },
                {
                    "attributes" : {
                        "POSITION" : 28,
                        "NORMAL" : 29,
                        "TEXCOORD_0" : 30
                    },
                    "indices" : 31,
                    "material" : 4
                }
            ]
        }
    ],
    "accessors" : [
        {
            "bufferView" : 0,
            "componentType" : 5126,
            "count" : 129,
            "max" : [
                0.5171165466308594,
                0.672849714756012,
                0.6728501319885254
            ],
            "min" : [
                1.52587890625e-05,
                -0.6728487610816956,
                -0.6728459596633911
            ],
            "type" : "VEC3"
        },
        {
            "bufferView" : 1,
            "componentType" : 5126,
            "count" : 129,
            "type" : "VEC3"
        },
        {
            "bufferView" : 2,
            "componentType" : 5126,
            "count" : 129,
            "type" : "VEC2"
        },
        {
            "bufferView" : 3,
            "componentType" : 5123,
            "count" : 144,
            "type" : "SCALAR"
        },
        {
            "bufferView" : 4,
            "componentType" : 5126,
            "count" : 121,
            "max" : [
                -1.52587890625e-05,
                0.6728493571281433,
                0.6728515625
            ],
            "min" : [
                -0.5171165466308594,
                -0.6728485822677612,
                -0.6728464365005493
            ],
            "type" : "VEC3"
        },
        {
            "bufferView" : 5,
            "componentType" : 5126,
            "count" : 121,
            "type" : "VEC3"
        },
        {
            "bufferView" : 6,
            "componentType" : 5126,
            "count" : 121,
            "type" : "VEC2"
        },
        {
            "bufferView" : 7,
            "componentType" : 5123,
            "count" : 144,
            "type" : "SCALAR"
        },
        {
            "bufferView" : 8,
            "componentType" : 5126,
            "count" : 134,
            "max" : [
                0.8776626586914062,
                0.8254364728927612,
                0.8254364728927612
            ],
            "min" : [
                2.288818359375e-05,
                -0.8254355788230896,
                -0.825432300567627
            ],
            "type" : "VEC3"
        },
        {
            "bufferView" : 9,
            "componentType" : 5126,
            "count" : 134,
            "type" : "VEC3"
        },
        {
            "bufferView" : 10,
            "componentType" : 5126,
            "count" : 134,
            "type" : "VEC2"
        },
        {
            "bufferView" : 11,
            "componentType" : 5123,
            "count" : 150,
            "type" : "SCALAR"
        },
        {
            "bufferView" : 12,
            "componentType" : 5126,
            "count" : 138,
            "max" : [
                -2.6702880859375e-05,
                0.8254360556602478,
                0.8254368305206299
            ],
            "min" : [
                -0.8776664733886719,
                -0.8254352807998657,
                -0.8254338502883911
            ],
            "type" : "VEC3"
        },
        {
            "bufferView" : 13,
            "componentType" : 5126,
            "count" : 138,
            "type" : "VEC3"
        },
        {
            "bufferView" : 14,
            "componentType" : 5126,
            "count" : 138,
            "type" : "VEC2"
        },
        {
            "bufferView" : 15,
            "componentType" : 5123,
            "count" : 144,
            "type" : "SCALAR"
        },
        {
            "bufferView" : 16,
            "componentType" : 5126,
            "count" : 475,
            "max" : [
                1.3247756958007812,
                3.984361171722412,
                3.0123393535614014
            ],
            "min" : [
                -1.3247489929199219,
                0.2741734981536865,
                -2.991710662841797
            ],
            "type" : "VEC3"
        },
        {
            "bufferView" : 17,
            "componentType" : 5126,
            "count" : 475,
            "type" : "VEC3"
        },
        {
            "bufferView" : 18,
            "componentType" : 5126,
            "count" : 475,
            "type" : "VEC2"
        },
        {
            "bufferView" : 19,
            "componentType" : 5123,
            "count" : 522,
            "type" : "SCALAR"
        },
        {
            "bufferView" : 20,
            "componentType" : 5126,
            "count" : 892,
            "max" : [
                1.2987098693847656,
                3.696777820587158,
                2.97062087059021
            ],
            "min" : [
                -1.2987022399902344,
                0.14912009239196777,
                -2.908163070678711
            ],
            "type" : "VEC3"
        },
        {
            "bufferView" : 21,
            "componentType" : 5126,
            "count" : 892,
            "type" : "VEC3"
        },
        {
            "bufferView" : 22,
            "componentType" : 5126,
            "count" : 892,
            "type" : "VEC2"
        },
        {
            "bufferView" : 23,
            "componentType" : 5123,
            "count" : 954,
            "type" : "SCALAR"
        },
        {
            "bufferView" : 24,
            "componentType" : 5126,
            "count" : 455,
            "max" : [
                1.4350509643554688,
                4.862199306488037,
                3.1025896072387695
            ],
            "min" : [
                -1.4704093933105469,
                0.36010169982910156,
                -2.6667943000793457
            ],
            "type" : "VEC3"
        },
        {
            "bufferView" : 25,
            "componentType" : 5126,
            "count" : 455,
            "type" : "VEC3"
        },
        {
            "bufferView" : 26,
            "componentType" : 5126,
            "count" : 455,
            "type" : "VEC2"
        },
        {
            "bufferView" : 27,
            "componentType" : 5123,
            "count" : 498,
            "type" : "SCALAR"
        },
        {
            "bufferView" : 28,
            "componentType" : 5126,
            "count" : 124,
            "max" : [
                0.6557388305664062,
                2.4792544841766357,
                -0.23386555910110474
            ],
            "min" : [
                -0.655731201171875,
                1.0864554643630981,
                -1.8037614822387695
            ],
            "type" : "VEC3"
        },
        {
            "bufferView" : 29,
            "componentType" : 5126,
            "count" : 124,
            "type" : "VEC3"
        },
        {
            "bufferView" : 30,
            "componentType" : 5126,
            "count" : 124,
            "type" : "VEC2"
        },
        {
            "bufferView" : 31,
            "componentType" : 5123,
            "count" : 138,
            "type" : "SCALAR"
        }
    ],
    "bufferViews" : [
        {
            "buffer" : 0,
            "byteLength" : 1548,
            "byteOffset" : 0
        },
        {
            "buffer" : 0,
            "byteLength" : 1548,
            "byteOffset" : 1548
        },
        {
            "buffer" : 0,
            "byteLength" : 1032,
            "byteOffset" : 3096
        },
        {
            "buffer" : 0,
            "byteLength" : 288,
            "byteOffset" : 4128
        },
        {
            "buffer" : 0,
            "byteLength" : 1452,
            "byteOffset" : 4416
        },
        {
            "buffer" : 0,
            "byteLength" : 1452,
            "byteOffset" : 5868
        },
        {
            "buffer" : 0,
            "byteLength" : 968,
            "byteOffset" : 7320
        },
        {
            "buffer" : 0,
            "byteLength" : 288,
            "byteOffset" : 8288
        },
        {
            "buffer" : 0,
            "byteLength" : 1608,
            "byteOffset" : 8576
        },
        {
            "buffer" : 0,
            "byteLength" : 1608,
            "byteOffset" : 10184
        },
        {
            "buffer" : 0,
            "byteLength" : 1072,
            "byteOffset" : 11792
        },
        {
            "buffer" : 0,
            "byteLength" : 300,
            "byteOffset" : 12864
        },
        {
            "buffer" : 0,
            "byteLength" : 1656,
            "byteOffset" : 13164
        },
        {
            "buffer" : 0,
            "byteLength" : 1656,
            "byteOffset" : 14820
        },
        {
            "buffer" : 0,
            "byteLength" : 1104,
            "byteOffset" : 16476
        },
        {
            "buffer" : 0,
            "byteLength" : 288,
            "byteOffset" : 17580
        },
        {
            "buffer" : 0,
            "byteLength" : 5700,
            "byteOffset" : 17868
        },
        {
            "buffer" : 0,
            "byteLength" : 5700,
            "byteOffset" : 23568
        },
        {
            "buffer" : 0,
            "byteLength" : 3800,
            "byteOffset" : 29268
        },
        {
            "buffer" : 0,
            "byteLength" : 1044,
            "byteOffset" : 33068
        },
        {
            "buffer" : 0,
            "byteLength" : 10704,
            "byteOffset" : 34112
        },
        {
            "buffer" : 0,
            "byteLength" : 10704,
            "byteOffset" : 44816
        },
        {
            "buffer" : 0,
            "byteLength" : 7136,
            "byteOffset" : 55520
        },
        {
            "buffer" : 0,
            "byteLength" : 1908,
            "byteOffset" : 62656
        },
        {
            "buffer" : 0,
            "byteLength" : 5460,
            "byteOffset" : 64564
        },
        {
            "buffer" : 0,
            "byteLength" : 5460,
            "byteOffset" : 70024
        },
        {
            "buffer" : 0,
            "byteLength" : 3640,
            "byteOffset" : 75484
        },
        {
            "buffer" : 0,
            "byteLength" : 996,
            "byteOffset" : 79124
        },
        {
            "buffer" : 0,
            "byteLength" : 1488,
            "byteOffset" : 80120
        },
        {
            "buffer" : 0,
            "byteLength" : 1488,
            "byteOffset" : 81608
        },
        {
            "buffer" : 0,
            "byteLength" : 992,
            "byteOffset" : 83096
        },
        {
            "buffer" : 0,
            "byteLength" : 276,
            "byteOffset" : 84088
        }
    ],
    "buffers" : [
        {
            "byteLength" : 84364,
            "uri" : "sprint_car.bin"
        }
    ]
}
