{
    "asset" : {
        "generator" : "Khronos glTF Blender I/O v3.2.43",
        "version" : "2.0"
    },
    "scene" : 0,
    "scenes" : [
        {
            "name" : "Scene",
            "nodes" : [
                4
            ]
        }
    ],
    "nodes" : [
        {
            "mesh" : 0,
            "name" : "SR_Veh_OffRoadTruck_Wheel_FL",
            "translation" : [
                1.244873046875,
                0.9209556579589844,
                2.7443041801452637
            ]
        },
        {
            "mesh" : 1,
            "name" : "SR_Veh_OffRoadTruck_Wheel_FR",
            "translation" : [
                -1.2464923858642578,
                0.9209556579589844,
                2.7443041801452637
            ]
        },
        {
            "mesh" : 2,
            "name" : "SR_Veh_OffRoadTruck_Wheel_RL",
            "translation" : [
                1.244873046875,
                0.9209563732147217,
                -2.5809383392333984
            ]
        },
        {
            "mesh" : 3,
            "name" : "SR_Veh_OffRoadTruck_Wheel_RR",
            "translation" : [
                -1.2464923858642578,
                0.9209563732147217,
                -2.5809383392333984
            ]
        },
        {
            "children" : [
                0,
                1,
                2,
                3
            ],
            "mesh" : 4,
            "name" : "OffRoadTruck",
            "translation" : [
                -20,
                0,
                0
            ]
        }
    ],
    "materials" : [
        {
            "doubleSided" : true,
            "name" : "Wheel",
            "pbrMetallicRoughness" : {
                "baseColorFactor" : [
                    0.003095257328823209,
                    0.003095257328823209,
                    0.003095257328823209,
                    1
                ],
                "metallicFactor" : 0,
                "roughnessFactor" : 0.800000011920929
            }
        },
        {
            "doubleSided" : true,
            "name" : "Paint",
            "pbrMetallicRoughness" : {
                "baseColorFactor" : [
                    0.8000000715255737,
                    0,
                    0,
                    1
                ],
                "metallicFactor" : 0.4000000059604645,
                "roughnessFactor" : 0.699999988079071
            }
        },
        {
            "doubleSided" : true,
            "name" : "Cover",
            "pbrMetallicRoughness" : {
                "baseColorFactor" : [
                    0,
                    0,
                    0,
                    1
                ],
                "metallicFactor" : 0.20000000298023224,
                "roughnessFactor" : 0.800000011920929
            }
        },
        {
            "doubleSided" : true,
            "name" : "EngineCover",
            "pbrMetallicRoughness" : {
                "baseColorFactor" : [
                    0.029098937287926674,
                    0.029098937287926674,
                    0.029098937287926674,
                    1
                ],
                "metallicFactor" : 0.20000000298023224
            }
        },
        {
            "doubleSided" : true,
            "name" : "Glass",
            "pbrMetallicRoughness" : {
                "baseColorFactor" : [
                    0.6382700204849243,
                    0.6382700204849243,
                    0.6382700204849243,
                    1
                ],
                "roughnessFactor" : 0.20000000298023224
            }
        },
        {
            "doubleSided" : true,
            "name" : "Metal",
            "pbrMetallicRoughness" : {
                "baseColorFactor" : [
                    0.44999998807907104,
                    0.44999998807907104,
                    0.44999998807907104,
                    1
                ],
                "roughnessFactor" : 0.4000000059604645
            }
        },
        {
            "doubleSided" : true,
            "name" : "Leather",
            "pbrMetallicRoughness" : {
                "baseColorFactor" : [
                    0,
                    0,
                    0,
                    1
                ],
                "metallicFactor" : 0,
                "roughnessFactor" : 0.5
            }
        }
    ],
    "meshes" : [
        {
            "name" : "Mesh.038",
            "primitives" : [
                {
                    "attributes" : {
                        "POSITION" : 0,
                        "NORMAL" : 1,
                        "TEXCOORD_0" : 2
                    },
                    "indices" : 3,
                    "material" : 0
                }
            ]
        },
        {
            "name" : "Mesh.037",
            "primitives" : [
                {
                    "attributes" : {
                        "POSITION" : 4,
                        "NORMAL" : 5,
                        "TEXCOORD_0" : 6
                    },
                    "indices" : 7,
                    "material" : 0
                }
            ]
        },
        {
            "name" : "Mesh.039",
            "primitives" : [
                {
                    "attributes" : {
                        "POSITION" : 8,
                        "NORMAL" : 9,
                        "TEXCOORD_0" : 10
                    },
                    "indices" : 3,
                    "material" : 0
                }
            ]
        },
        {
            "name" : "Mesh.036",
            "primitives" : [
                {
                    "attributes" : {
                        "POSITION" : 11,
                        "NORMAL" : 12,
                        "TEXCOORD_0" : 13
                    },
                    "indices" : 7,
                    "material" : 0
                }
            ]
        },
        {
            "name" : "Mesh.035",
            "primitives" : [
                {
                    "attributes" : {
                        "POSITION" : 14,
                        "NORMAL" : 15,
                        "TEXCOORD_0" : 16
                    },
                    "indices" : 17,
                    "material" : 1
                },
                {
                    "attributes" : {
                        "POSITION" : 18,
                        "NORMAL" : 19,
                        "TEXCOORD_0" : 20
                    },
                    "indices" : 21,
                    "material" : 2
                },
                {
                    "attributes" : {
                        "POSITION" : 22,
                        "NORMAL" : 23,
                        "TEXCOORD_0" : 24
                    },
                    "indices" : 25,
                    "material" : 3
                },
                {
                    "attributes" : {
                        "POSITION" : 26,
                        "NORMAL" : 27,
                        "TEXCOORD_0" : 28
                    },
                    "indices" : 29,
                    "material" : 4
                },
                {
                    "attributes" : {
                        "POSITION" : 30,
                        "NORMAL" : 31,
                        "TEXCOORD_0" : 32
                    },
                    "indices" : 33,
                    "material" : 5
                },
                {
                    "attributes" : {
                        "POSITION" : 34,
                        "NORMAL" : 35,
                        "TEXCOORD_0" : 36
                    },
                    "indices" : 37,
                    "material" : 0
                },
                {
                    "attributes" : {
                        "POSITION" : 38,
                        "NORMAL" : 39,
                        "TEXCOORD_0" : 40
                    },
                    "indices" : 41,
                    "material" : 6
                }
            ]
        }
    ],
    "accessors" : [
        {
            "bufferView" : 0,
            "componentType" : 5126,
            "count" : 109,
            "max" : [
                0.6056435108184814,
                0.9209539890289307,
                0.9209601879119873
            ],
            "min" : [
                3.337860107421875e-06,
                -0.9209561944007874,
                -0.9209568500518799
            ],
            "type" : "VEC3"
        },
        {
            "bufferView" : 1,
            "componentType" : 5126,
            "count" : 109,
            "type" : "VEC3"
        },
        {
            "bufferView" : 2,
            "componentType" : 5126,
            "count" : 109,
            "type" : "VEC2"
        },
        {
            "bufferView" : 3,
            "componentType" : 5123,
            "count" : 210,
            "type" : "SCALAR"
        },
        {
            "bufferView" : 4,
            "componentType" : 5126,
            "count" : 109,
            "max" : [
                -1.430511474609375e-06,
                0.9209539890289307,
                0.9209601879119873
            ],
            "min" : [
                -0.6056339740753174,
                -0.9209561944007874,
                -0.9209568500518799
            ],
            "type" : "VEC3"
        },
        {
            "bufferView" : 5,
            "componentType" : 5126,
            "count" : 109,
            "type" : "VEC3"
        },
        {
            "bufferView" : 6,
            "componentType" : 5126,
            "count" : 109,
            "type" : "VEC2"
        },
        {
            "bufferView" : 7,
            "componentType" : 5123,
            "count" : 210,
            "type" : "SCALAR"
        },
        {
            "bufferView" : 8,
            "componentType" : 5126,
            "count" : 109,
            "max" : [
                0.6056435108184814,
                0.9209542274475098,
                0.9209635257720947
            ],
            "min" : [
                3.337860107421875e-06,
                -0.920956015586853,
                -0.9209535121917725
            ],
            "type" : "VEC3"
        },
        {
            "bufferView" : 9,
            "componentType" : 5126,
            "count" : 109,
            "type" : "VEC3"
        },
        {
            "bufferView" : 10,
            "componentType" : 5126,
            "count" : 109,
            "type" : "VEC2"
        },
        {
            "bufferView" : 11,
            "componentType" : 5126,
            "count" : 109,
            "max" : [
                -1.430511474609375e-06,
                0.9209542274475098,
                0.9209635257720947
            ],
            "min" : [
                -0.6056339740753174,
                -0.920956015586853,
                -0.9209535121917725
            ],
            "type" : "VEC3"
        },
        {
            "bufferView" : 12,
            "componentType" : 5126,
            "count" : 109,
            "type" : "VEC3"
        },
        {
            "bufferView" : 13,
            "componentType" : 5126,
            "count" : 109,
            "type" : "VEC2"
        },
        {
            "bufferView" : 14,
            "componentType" : 5126,
            "count" : 882,
            "max" : [
                1.899726152420044,
                3.629404067993164,
                4.1124043464660645
            ],
            "min" : [
                -1.8997337818145752,
                0.7375798225402832,
                -3.835365056991577
            ],
            "type" : "VEC3"
        },
        {
            "bufferView" : 15,
            "componentType" : 5126,
            "count" : 882,
            "type" : "VEC3"
        },
        {
            "bufferView" : 16,
            "componentType" : 5126,
            "count" : 882,
            "type" : "VEC2"
        },
        {
            "bufferView" : 17,
            "componentType" : 5123,
            "count" : 1854,
            "type" : "SCALAR"
        },
        {
            "bufferView" : 18,
            "componentType" : 5126,
            "count" : 352,
            "max" : [
                1.899726152420044,
                3.74700927734375,
                3.951542377471924
            ],
            "min" : [
                -1.8997337818145752,
                0.6324161887168884,
                -3.835365056991577
            ],
            "type" : "VEC3"
        },
        {
            "bufferView" : 19,
            "componentType" : 5126,
            "count" : 352,
            "type" : "VEC3"
        },
        {
            "bufferView" : 20,
            "componentType" : 5126,
            "count" : 352,
            "type" : "VEC2"
        },
        {
            "bufferView" : 21,
            "componentType" : 5123,
            "count" : 726,
            "type" : "SCALAR"
        },
        {
            "bufferView" : 22,
            "componentType" : 5126,
            "count" : 28,
            "max" : [
                1.0242687463760376,
                2.313581943511963,
                3.1574559211730957
            ],
            "min" : [
                -1.1158901453018188,
                1.2262946367263794,
                -3.7633016109466553
            ],
            "type" : "VEC3"
        },
        {
            "bufferView" : 23,
            "componentType" : 5126,
            "count" : 28,
            "type" : "VEC3"
        },
        {
            "bufferView" : 24,
            "componentType" : 5126,
            "count" : 28,
            "type" : "VEC2"
        },
        {
            "bufferView" : 25,
            "componentType" : 5123,
            "count" : 42,
            "type" : "SCALAR"
        },
        {
            "bufferView" : 26,
            "componentType" : 5126,
            "count" : 126,
            "max" : [
                1.8719475269317627,
                3.6912481784820557,
                4.036774158477783
            ],
            "min" : [
                -1.871974229812622,
                1.9319219589233398,
                -3.835365056991577
            ],
            "type" : "VEC3"
        },
        {
            "bufferView" : 27,
            "componentType" : 5126,
            "count" : 126,
            "type" : "VEC3"
        },
        {
            "bufferView" : 28,
            "componentType" : 5126,
            "count" : 126,
            "type" : "VEC2"
        },
        {
            "bufferView" : 29,
            "componentType" : 5123,
            "count" : 198,
            "type" : "SCALAR"
        },
        {
            "bufferView" : 30,
            "componentType" : 5126,
            "count" : 426,
            "max" : [
                1.4502825736999512,
                2.4373714923858643,
                4.1124043464660645
            ],
            "min" : [
                -1.4397196769714355,
                0.7375798225402832,
                -4.112419128417969
            ],
            "type" : "VEC3"
        },
        {
            "bufferView" : 31,
            "componentType" : 5126,
            "count" : 426,
            "type" : "VEC3"
        },
        {
            "bufferView" : 32,
            "componentType" : 5126,
            "count" : 426,
            "type" : "VEC2"
        },
        {
            "bufferView" : 33,
            "componentType" : 5123,
            "count" : 768,
            "type" : "SCALAR"
        },
        {
            "bufferView" : 34,
            "componentType" : 5126,
            "count" : 77,
            "max" : [
                0.9209476709365845,
                2.9295902252197266,
                -1.5171791315078735
            ],
            "min" : [
                -1.351966381072998,
                2.32395339012146,
                -3.6235480308532715
            ],
            "type" : "VEC3"
        },
        {
            "bufferView" : 35,
            "componentType" : 5126,
            "count" : 77,
            "type" : "VEC3"
        },
        {
            "bufferView" : 36,
            "componentType" : 5126,
            "count" : 77,
            "type" : "VEC2"
        },
        {
            "bufferView" : 37,
            "componentType" : 5123,
            "count" : 114,
            "type" : "SCALAR"
        },
        {
            "bufferView" : 38,
            "componentType" : 5126,
            "count" : 36,
            "max" : [
                1.393134593963623,
                2.9715495109558105,
                -2.5077013969421387
            ],
            "min" : [
                -1.394752025604248,
                2.328294038772583,
                -2.641578197479248
            ],
            "type" : "VEC3"
        },
        {
            "bufferView" : 39,
            "componentType" : 5126,
            "count" : 36,
            "type" : "VEC3"
        },
        {
            "bufferView" : 40,
            "componentType" : 5126,
            "count" : 36,
            "type" : "VEC2"
        },
        {
            "bufferView" : 41,
            "componentType" : 5123,
            "count" : 66,
            "type" : "SCALAR"
        }
    ],
    "bufferViews" : [
        {
            "buffer" : 0,
            "byteLength" : 1308,
            "byteOffset" : 0
        },
        {
            "buffer" : 0,
            "byteLength" : 1308,
            "byteOffset" : 1308
        },
        {
            "buffer" : 0,
            "byteLength" : 872,
            "byteOffset" : 2616
        },
        {
            "buffer" : 0,
            "byteLength" : 420,
            "byteOffset" : 3488
        },
        {
            "buffer" : 0,
            "byteLength" : 1308,
            "byteOffset" : 3908
        },
        {
            "buffer" : 0,
            "byteLength" : 1308,
            "byteOffset" : 5216
        },
        {
            "buffer" : 0,
            "byteLength" : 872,
            "byteOffset" : 6524
        },
        {
            "buffer" : 0,
            "byteLength" : 420,
            "byteOffset" : 7396
        },
        {
            "buffer" : 0,
            "byteLength" : 1308,
            "byteOffset" : 7816
        },
        {
            "buffer" : 0,
            "byteLength" : 1308,
            "byteOffset" : 9124
        },
        {
            "buffer" : 0,
            "byteLength" : 872,
            "byteOffset" : 10432
        },
        {
            "buffer" : 0,
            "byteLength" : 1308,
            "byteOffset" : 11304
        },
        {
            "buffer" : 0,
            "byteLength" : 1308,
            "byteOffset" : 12612
        },
        {
            "buffer" : 0,
            "byteLength" : 872,
            "byteOffset" : 13920
        },
        {
            "buffer" : 0,
            "byteLength" : 10584,
            "byteOffset" : 14792
        },
        {
            "buffer" : 0,
            "byteLength" : 10584,
            "byteOffset" : 25376
        },
        {
            "buffer" : 0,
            "byteLength" : 7056,
            "byteOffset" : 35960
        },
        {
            "buffer" : 0,
            "byteLength" : 3708,
            "byteOffset" : 43016
        },
        {
            "buffer" : 0,
            "byteLength" : 4224,
            "byteOffset" : 46724
        },
        {
            "buffer" : 0,
            "byteLength" : 4224,
            "byteOffset" : 50948
        },
        {
            "buffer" : 0,
            "byteLength" : 2816,
            "byteOffset" : 55172
        },
        {
            "buffer" : 0,
            "byteLength" : 1452,
            "byteOffset" : 57988
        },
        {
            "buffer" : 0,
            "byteLength" : 336,
            "byteOffset" : 59440
        },
        {
            "buffer" : 0,
            "byteLength" : 336,
            "byteOffset" : 59776
        },
        {
            "buffer" : 0,
            "byteLength" : 224,
            "byteOffset" : 60112
        },
        {
            "buffer" : 0,
            "byteLength" : 84,
            "byteOffset" : 60336
        },
        {
            "buffer" : 0,
            "byteLength" : 1512,
            "byteOffset" : 60420
        },
        {
            "buffer" : 0,
            "byteLength" : 1512,
            "byteOffset" : 61932
        },
        {
            "buffer" : 0,
            "byteLength" : 1008,
            "byteOffset" : 63444
        },
        {
            "buffer" : 0,
            "byteLength" : 396,
            "byteOffset" : 64452
        },
        {
            "buffer" : 0,
            "byteLength" : 5112,
            "byteOffset" : 64848
        },
        {
            "buffer" : 0,
            "byteLength" : 5112,
            "byteOffset" : 69960
        },
        {
            "buffer" : 0,
            "byteLength" : 3408,
            "byteOffset" : 75072
        },
        {
            "buffer" : 0,
            "byteLength" : 1536,
            "byteOffset" : 78480
        },
        {
            "buffer" : 0,
            "byteLength" : 924,
            "byteOffset" : 80016
        },
        {
            "buffer" : 0,
            "byteLength" : 924,
            "byteOffset" : 80940
        },
        {
            "buffer" : 0,
            "byteLength" : 616,
            "byteOffset" : 81864
        },
        {
            "buffer" : 0,
            "byteLength" : 228,
            "byteOffset" : 82480
        },
        {
            "buffer" : 0,
            "byteLength" : 432,
            "byteOffset" : 82708
        },
        {
            "buffer" : 0,
            "byteLength" : 432,
            "byteOffset" : 83140
        },
        {
            "buffer" : 0,
            "byteLength" : 288,
            "byteOffset" : 83572
        },
        {
            "buffer" : 0,
            "byteLength" : 132,
            "byteOffset" : 83860
        }
    ],
    "buffers" : [
        {
            "byteLength" : 83992,
            "uri" : "off_road_truck.bin"
        }
    ]
}
